<svg xmlns="http://www.w3.org/2000/svg" xmlns:xlink="http://www.w3.org/1999/xlink" width="500" zoomAndPan="magnify" viewBox="0 0 375 374.999991" height="500" preserveAspectRatio="xMidYMid meet" version="1.2"><defs><clipPath id="92f52e31be"><path d="M 120 101 L 266 101 L 266 218 L 120 218 Z M 120 101 "/></clipPath><clipPath id="6f12511440"><path d="M 85.597656 123.878906 L 226.113281 65.261719 L 289.347656 216.851562 L 148.835938 275.46875 Z M 85.597656 123.878906 "/></clipPath><clipPath id="31581baba3"><path d="M 85.597656 123.878906 L 226.113281 65.261719 L 289.347656 216.851562 L 148.835938 275.46875 Z M 85.597656 123.878906 "/></clipPath><clipPath id="035d9c9234"><path d="M 100 115.007812 L 193 115.007812 L 193 220 L 100 220 Z M 100 115.007812 "/></clipPath><clipPath id="558eab6b0c"><path d="M 204 147.269531 L 282 147.269531 L 282 214 L 204 214 Z M 204 147.269531 "/></clipPath><clipPath id="813927cb3c"><path d="M 180.226562 163 L 227 163 L 227 219.699219 L 180.226562 219.699219 Z M 180.226562 163 "/></clipPath><clipPath id="3b368f335f"><rect x="0" width="198" y="0" height="52"/></clipPath><clipPath id="27ca91ddd8"><path d="M 218 111 L 238 111 L 238 129 L 218 129 Z M 218 111 "/></clipPath><clipPath id="6399cc78ff"><path d="M 220.207031 109.527344 L 238.566406 113.328125 L 234.921875 130.953125 L 216.558594 127.152344 Z M 220.207031 109.527344 "/></clipPath><clipPath id="bb335793a1"><path d="M 220.207031 109.527344 L 238.566406 113.328125 L 234.921875 130.953125 L 216.558594 127.152344 Z M 220.207031 109.527344 "/></clipPath></defs><g id="63f177e9eb"><g clip-rule="nonzero" clip-path="url(#92f52e31be)"><g clip-rule="nonzero" clip-path="url(#6f12511440)"><g clip-rule="nonzero" clip-path="url(#31581baba3)"><path style=" stroke:none;fill-rule:nonzero;fill:#f6a444;fill-opacity:1;" d="M 167.898438 101.214844 C 196.339844 98.347656 205.46875 127.253906 219.398438 132.640625 C 233.324219 138.027344 261.542969 149.890625 265.417969 185.367188 C 269.71875 224.769531 221.324219 204.183594 192.339844 213.347656 C 137.867188 230.578125 111.632812 186.289062 122.398438 158.40625 C 133.160156 130.527344 131.207031 104.933594 167.898438 101.214844 Z M 167.898438 101.214844 "/></g></g></g><g clip-rule="nonzero" clip-path="url(#035d9c9234)"><path style=" stroke:none;fill-rule:nonzero;fill:#ffffff;fill-opacity:1;" d="M 190.761719 135.648438 C 187.898438 134.824219 182.210938 132.824219 179.816406 131.859375 C 176.195312 130.402344 177.082031 127.589844 175.359375 126.414062 C 173.636719 125.238281 168.867188 123.179688 165.820312 123.960938 C 165.023438 120.664062 164.402344 115.023438 164.402344 115.023438 C 164.402344 115.023438 157.457031 122.097656 157.867188 127.140625 C 153.710938 128.019531 154.242188 140.742188 149.738281 151.707031 C 147.320312 157.597656 108.042969 181.640625 111.929688 207.257812 C 109.542969 207.390625 106.980469 207.4375 104.863281 204.078125 C 101.71875 199.105469 102.566406 190.121094 102.566406 190.121094 C 102.566406 190.121094 97.925781 198.777344 101.226562 206.714844 C 103.800781 212.914062 110.382812 213.3125 112.105469 213.972656 C 109.324219 217.503906 111.488281 218.949219 115.726562 219.496094 C 119.96875 220.042969 142.757812 219.742188 147.265625 219.496094 C 151.769531 219.246094 147.679688 213.871094 143.820312 213.648438 C 139.960938 213.425781 134.542969 213.117188 134.542969 213.117188 C 134.542969 213.117188 146.335938 214.210938 145.289062 204.71875 C 144.386719 196.507812 135.664062 191.523438 135.527344 191.292969 C 136.285156 191.320312 142.507812 194.914062 145.953125 202.601562 C 147.78125 205.996094 162.316406 192.734375 162.316406 192.734375 C 162.316406 192.734375 166.433594 219.804688 169.347656 219.804688 C 172.261719 219.804688 176.460938 219.804688 179.242188 219.804688 C 180.257812 219.804688 181.035156 219.5 180.046875 217.1875 C 179.691406 216.359375 174.40625 216.144531 173.941406 215.035156 C 172.164062 210.773438 173.058594 203.726562 170.589844 194.742188 C 170.058594 190.71875 173.542969 176.292969 175.53125 167.328125 C 177.007812 160.6875 172.917969 147.152344 173.765625 146.484375 C 175.753906 144.910156 181.820312 146.902344 188.429688 144.011719 C 191.257812 142.773438 191.292969 139.25 191.785156 138.886719 C 193.046875 137.957031 191.488281 135.855469 190.761719 135.648438 "/></g><g clip-rule="nonzero" clip-path="url(#558eab6b0c)"><path style=" stroke:none;fill-rule:nonzero;fill:#ffffff;fill-opacity:1;" d="M 220.796875 177.371094 C 220.796875 177.371094 221.929688 188.023438 223.066406 189.300781 C 224.203125 190.578125 225.339844 207.054688 223.777344 208.472656 C 222.214844 209.894531 220.367188 210.460938 220.226562 211.882812 C 220.085938 213.300781 225.199219 213.019531 225.625 212.875 C 226.050781 212.734375 230.453125 196.6875 231.445312 195.835938 C 232.441406 194.980469 231.164062 201.65625 232.296875 203.503906 C 233.433594 205.347656 236.84375 207.335938 236.84375 207.335938 L 236.84375 208.472656 C 236.84375 208.472656 232.867188 207.761719 232.441406 208.757812 C 232.015625 209.753906 231.445312 211.597656 232.726562 211.742188 C 234.003906 211.882812 237.695312 211.882812 237.695312 211.882812 C 237.695312 211.882812 237.554688 212.980469 244.371094 213 C 251.1875 213.019531 257.863281 212.023438 257.863281 212.023438 L 270.785156 211.457031 C 270.785156 211.457031 269.792969 212.269531 270.785156 213 C 271.78125 213.730469 281.152344 213.300781 281.722656 211.597656 C 282.289062 209.894531 280.300781 206.628906 273.910156 206.769531 C 267.519531 206.910156 259.140625 209.46875 258.429688 205.492188 C 257.71875 201.515625 260.277344 193.277344 253.742188 183.335938 C 247.210938 173.394531 241.8125 177.230469 239.117188 173.539062 C 236.417969 169.84375 234.855469 165.441406 235.707031 161.464844 C 236.558594 157.488281 237.835938 151.242188 235.992188 150.105469 C 234.144531 148.96875 231.304688 153.65625 231.304688 153.65625 C 231.304688 153.65625 225.480469 152.800781 225.199219 153.226562 C 224.914062 153.65625 223.066406 149.925781 223.066406 149.925781 C 223.066406 149.925781 222.5 153.511719 222.785156 154.082031 C 223.066406 154.648438 220.9375 155.644531 220.796875 156.210938 C 220.652344 156.777344 219.085938 158.625 220.222656 160.328125 C 221.363281 162.035156 222.074219 163.453125 221.789062 164.589844 C 221.503906 165.726562 221.503906 165.726562 221.503906 165.726562 C 221.503906 165.726562 213.835938 159.335938 211.136719 156.777344 C 208.441406 154.222656 209.292969 153.796875 208.296875 151.242188 C 207.304688 148.683594 205.742188 147.265625 204.746094 148.117188 C 203.753906 148.96875 204.460938 150.671875 204.746094 150.957031 C 205.03125 151.242188 205.03125 151.808594 204.890625 152.519531 C 204.746094 153.226562 204.746094 154.363281 205.882812 154.648438 C 207.019531 154.933594 206.878906 158.765625 207.871094 159.902344 C 208.867188 161.039062 215.824219 175.097656 220.796875 177.371094 "/></g><g clip-rule="nonzero" clip-path="url(#813927cb3c)"><path style=" stroke:none;fill-rule:nonzero;fill:#ffffff;fill-opacity:1;" d="M 221.214844 210.246094 C 221.214844 210.246094 222.554688 200.558594 214.875 191.339844 C 207.195312 182.121094 200.5 186.675781 200.5 186.675781 C 200.5 186.675781 197.820312 182.925781 198.625 180.871094 C 199.429688 178.820312 202.730469 175.785156 203.179688 172.210938 C 203.625 168.640625 205.679688 163.910156 203.714844 163.820312 C 201.75 163.730469 198.089844 175.070312 198.089844 175.070312 C 198.089844 175.070312 204.964844 155.960938 196.75 166.496094 C 193.597656 170.542969 192.554688 176.675781 192.554688 176.675781 C 192.554688 176.675781 189.605469 177.390625 189.25 178.195312 C 188.894531 178.996094 185.054688 180.160156 182.820312 183.460938 C 180.589844 186.765625 180.234375 187.835938 180.945312 189.175781 C 181.660156 190.515625 184.429688 193.640625 186.480469 192.925781 L 187.464844 194.265625 C 187.464844 194.265625 185.144531 202.835938 193.269531 209.445312 C 193.269531 209.445312 194.429688 213.015625 193.894531 214.445312 C 193.359375 215.871094 191.480469 216.855469 191.480469 217.746094 C 191.480469 218.640625 193.535156 219.53125 195.589844 219.085938 C 197.644531 218.640625 196.660156 219.207031 196.660156 219.207031 C 196.660156 219.207031 203 219.265625 203.804688 218.820312 C 204.605469 218.371094 204.605469 217.03125 204.605469 217.03125 C 204.605469 217.03125 205.945312 218.730469 206.394531 218.550781 C 206.839844 218.371094 213.894531 220.042969 214.605469 219.207031 C 215.320312 218.371094 217.019531 218.820312 217.019531 218.820312 C 217.019531 218.820312 219.25 215.960938 219.964844 214.53125 C 220.679688 213.105469 221.054688 216.585938 223.980469 214.800781 C 226.90625 213.015625 227.195312 206.496094 221.214844 210.246094 "/></g><g transform="matrix(1,0,0,1,89,225)"><g clip-path="url(#3b368f335f)"><g style="fill:#62464b;fill-opacity:1;"><g transform="translate(1.191595, 41.38108)"><path style="stroke:none" d="M 0.125 -26.96875 C 0.125 -27.613281 0.554688 -28.191406 1.421875 -28.703125 C 2.296875 -29.210938 3.21875 -29.46875 4.1875 -29.46875 C 5.320312 -29.46875 5.992188 -29.078125 6.203125 -28.296875 L 12.328125 -7.625 L 15.515625 -21.25 C 15.628906 -21.757812 15.976562 -22.160156 16.5625 -22.453125 C 17.15625 -22.742188 17.8125 -22.890625 18.53125 -22.890625 C 19.257812 -22.890625 19.921875 -22.742188 20.515625 -22.453125 C 21.109375 -22.160156 21.457031 -21.757812 21.5625 -21.25 L 24.75 -7.625 L 30.875 -28.296875 C 31.09375 -29.078125 31.765625 -29.46875 32.890625 -29.46875 C 33.859375 -29.46875 34.78125 -29.210938 35.65625 -28.703125 C 36.53125 -28.191406 36.96875 -27.613281 36.96875 -26.96875 C 36.96875 -26.78125 36.941406 -26.601562 36.890625 -26.4375 L 28.859375 -1.859375 C 28.617188 -1.179688 28.113281 -0.660156 27.34375 -0.296875 C 26.582031 0.0546875 25.703125 0.234375 24.703125 0.234375 C 23.710938 0.234375 22.828125 0.0546875 22.046875 -0.296875 C 21.265625 -0.660156 20.796875 -1.179688 20.640625 -1.859375 L 18.546875 -11.40625 L 16.453125 -1.859375 C 16.285156 -1.179688 15.8125 -0.660156 15.03125 -0.296875 C 14.257812 0.0546875 13.375 0.234375 12.375 0.234375 C 11.382812 0.234375 10.5 0.0546875 9.71875 -0.296875 C 8.9375 -0.660156 8.4375 -1.179688 8.21875 -1.859375 L 0.203125 -26.4375 C 0.148438 -26.601562 0.125 -26.78125 0.125 -26.96875 Z M 0.125 -26.96875 "/></g></g><g style="fill:#62464b;fill-opacity:1;"><g transform="translate(39.519068, 41.38108)"><path style="stroke:none" d="M 2.171875 -1.9375 L 2.171875 -27.578125 C 2.171875 -28.191406 2.476562 -28.660156 3.09375 -28.984375 C 3.71875 -29.304688 4.457031 -29.46875 5.3125 -29.46875 C 6.175781 -29.46875 6.914062 -29.304688 7.53125 -28.984375 C 8.15625 -28.660156 8.46875 -28.191406 8.46875 -27.578125 L 8.46875 -17.703125 L 16.484375 -17.703125 L 16.484375 -27.578125 C 16.484375 -28.191406 16.789062 -28.660156 17.40625 -28.984375 C 18.03125 -29.304688 18.769531 -29.46875 19.625 -29.46875 C 20.488281 -29.46875 21.226562 -29.304688 21.84375 -28.984375 C 22.46875 -28.660156 22.78125 -28.191406 22.78125 -27.578125 L 22.78125 -1.9375 C 22.78125 -1.320312 22.46875 -0.84375 21.84375 -0.5 C 21.226562 -0.164062 20.488281 0 19.625 0 C 18.769531 0 18.03125 -0.164062 17.40625 -0.5 C 16.789062 -0.84375 16.484375 -1.320312 16.484375 -1.9375 L 16.484375 -12.859375 L 8.46875 -12.859375 L 8.46875 -1.9375 C 8.46875 -1.320312 8.15625 -0.84375 7.53125 -0.5 C 6.914062 -0.164062 6.175781 0 5.3125 0 C 4.457031 0 3.71875 -0.164062 3.09375 -0.5 C 2.476562 -0.84375 2.171875 -1.320312 2.171875 -1.9375 Z M 2.171875 -1.9375 "/></g></g><g style="fill:#62464b;fill-opacity:1;"><g transform="translate(65.715712, 41.38108)"><path style="stroke:none" d="M 2.171875 -1.9375 L 2.171875 -27.578125 C 2.171875 -28.191406 2.476562 -28.660156 3.09375 -28.984375 C 3.71875 -29.304688 4.457031 -29.46875 5.3125 -29.46875 C 6.175781 -29.46875 6.914062 -29.304688 7.53125 -28.984375 C 8.15625 -28.660156 8.46875 -28.191406 8.46875 -27.578125 L 8.46875 -1.9375 C 8.46875 -1.320312 8.15625 -0.84375 7.53125 -0.5 C 6.914062 -0.164062 6.175781 0 5.3125 0 C 4.457031 0 3.71875 -0.164062 3.09375 -0.5 C 2.476562 -0.84375 2.171875 -1.320312 2.171875 -1.9375 Z M 2.171875 -1.9375 "/></g></g><g style="fill:#62464b;fill-opacity:1;"><g transform="translate(77.605253, 41.38108)"><path style="stroke:none" d="M 0.765625 -4.84375 C 0.765625 -5.59375 1.039062 -6.34375 1.59375 -7.09375 C 2.144531 -7.84375 2.78125 -8.21875 3.5 -8.21875 C 3.90625 -8.21875 4.359375 -8.0625 4.859375 -7.75 C 5.359375 -7.445312 5.816406 -7.109375 6.234375 -6.734375 C 6.648438 -6.359375 7.234375 -6.015625 7.984375 -5.703125 C 8.734375 -5.390625 9.523438 -5.234375 10.359375 -5.234375 C 11.410156 -5.234375 12.320312 -5.457031 13.09375 -5.90625 C 13.875 -6.351562 14.265625 -7.019531 14.265625 -7.90625 C 14.265625 -8.789062 13.828125 -9.566406 12.953125 -10.234375 C 12.085938 -10.910156 11.03125 -11.523438 9.78125 -12.078125 C 8.53125 -12.628906 7.269531 -13.242188 6 -13.921875 C 4.738281 -14.609375 3.671875 -15.582031 2.796875 -16.84375 C 1.921875 -18.113281 1.484375 -19.617188 1.484375 -21.359375 C 1.484375 -24.160156 2.488281 -26.25 4.5 -27.625 C 6.519531 -29.007812 8.957031 -29.703125 11.8125 -29.703125 C 12.507812 -29.703125 13.238281 -29.660156 14 -29.578125 C 14.769531 -29.503906 15.628906 -29.351562 16.578125 -29.125 C 17.535156 -28.894531 18.316406 -28.523438 18.921875 -28.015625 C 19.523438 -27.503906 19.828125 -26.882812 19.828125 -26.15625 C 19.828125 -25.457031 19.601562 -24.734375 19.15625 -23.984375 C 18.71875 -23.234375 18.109375 -22.859375 17.328125 -22.859375 C 17.003906 -22.859375 16.316406 -23.113281 15.265625 -23.625 C 14.222656 -24.132812 13.070312 -24.390625 11.8125 -24.390625 C 10.46875 -24.390625 9.457031 -24.15625 8.78125 -23.6875 C 8.113281 -23.21875 7.78125 -22.644531 7.78125 -21.96875 C 7.78125 -21.351562 8.09375 -20.789062 8.71875 -20.28125 C 9.351562 -19.769531 10.140625 -19.332031 11.078125 -18.96875 C 12.023438 -18.601562 13.054688 -18.128906 14.171875 -17.546875 C 15.285156 -16.972656 16.3125 -16.34375 17.25 -15.65625 C 18.195312 -14.976562 18.984375 -14.019531 19.609375 -12.78125 C 20.242188 -11.539062 20.5625 -10.128906 20.5625 -8.546875 C 20.5625 -5.722656 19.632812 -3.523438 17.78125 -1.953125 C 15.925781 -0.378906 13.492188 0.40625 10.484375 0.40625 C 7.878906 0.40625 5.609375 -0.128906 3.671875 -1.203125 C 1.734375 -2.285156 0.765625 -3.5 0.765625 -4.84375 Z M 0.765625 -4.84375 "/></g></g><g style="fill:#62464b;fill-opacity:1;"><g transform="translate(100.335961, 41.38108)"><path style="stroke:none" d="M 2.171875 -1.9375 L 2.171875 -27.578125 C 2.171875 -28.191406 2.476562 -28.660156 3.09375 -28.984375 C 3.71875 -29.304688 4.457031 -29.46875 5.3125 -29.46875 C 6.175781 -29.46875 6.914062 -29.304688 7.53125 -28.984375 C 8.15625 -28.660156 8.46875 -28.191406 8.46875 -27.578125 L 8.46875 -17.90625 L 16 -28.578125 C 16.40625 -29.171875 16.957031 -29.46875 17.65625 -29.46875 C 18.488281 -29.46875 19.3125 -29.125 20.125 -28.4375 C 20.945312 -27.75 21.359375 -27.019531 21.359375 -26.25 C 21.359375 -25.8125 21.226562 -25.40625 20.96875 -25.03125 L 14.34375 -16.734375 L 22.703125 -3.953125 C 22.910156 -3.597656 23.015625 -3.25 23.015625 -2.90625 C 23.015625 -2.125 22.609375 -1.40625 21.796875 -0.75 C 20.992188 -0.09375 20.140625 0.234375 19.234375 0.234375 C 18.265625 0.234375 17.535156 -0.148438 17.046875 -0.921875 L 10.15625 -11.40625 L 8.46875 -9.234375 L 8.46875 -1.9375 C 8.46875 -1.320312 8.15625 -0.84375 7.53125 -0.5 C 6.914062 -0.164062 6.175781 0 5.3125 0 C 4.457031 0 3.71875 -0.164062 3.09375 -0.5 C 2.476562 -0.84375 2.171875 -1.320312 2.171875 -1.9375 Z M 2.171875 -1.9375 "/></g></g><g style="fill:#62464b;fill-opacity:1;"><g transform="translate(124.396614, 41.38108)"><path style="stroke:none" d="M 0.15625 -2.578125 C 0.15625 -2.660156 0.179688 -2.8125 0.234375 -3.03125 L 7.734375 -27.609375 C 7.953125 -28.285156 8.441406 -28.800781 9.203125 -29.15625 C 9.972656 -29.519531 10.851562 -29.703125 11.84375 -29.703125 C 12.84375 -29.703125 13.722656 -29.519531 14.484375 -29.15625 C 15.253906 -28.800781 15.75 -28.285156 15.96875 -27.609375 L 23.5 -3.03125 C 23.550781 -2.8125 23.578125 -2.660156 23.578125 -2.578125 C 23.578125 -1.878906 23.140625 -1.273438 22.265625 -0.765625 C 21.398438 -0.253906 20.492188 0 19.546875 0 C 18.390625 0 17.707031 -0.390625 17.5 -1.171875 L 16.125 -6.203125 L 7.625 -6.203125 L 6.25 -1.171875 C 6.03125 -0.390625 5.34375 0 4.1875 0 C 3.25 0 2.34375 -0.253906 1.46875 -0.765625 C 0.59375 -1.273438 0.15625 -1.878906 0.15625 -2.578125 Z M 8.90625 -11.046875 L 14.796875 -11.046875 L 11.859375 -21.84375 Z M 8.90625 -11.046875 "/></g></g><g style="fill:#62464b;fill-opacity:1;"><g transform="translate(149.384214, 41.38108)"><path style="stroke:none" d="M 2.171875 -1.9375 L 2.171875 -27.578125 C 2.171875 -28.085938 2.351562 -28.53125 2.71875 -28.90625 C 3.082031 -29.28125 3.546875 -29.46875 4.109375 -29.46875 L 12.453125 -29.46875 C 19.066406 -29.46875 22.375 -26.59375 22.375 -20.84375 C 22.375 -16.644531 20.75 -13.914062 17.5 -12.65625 L 22.40625 -3.75 C 22.539062 -3.5625 22.609375 -3.320312 22.609375 -3.03125 C 22.609375 -2.25 22.1875 -1.507812 21.34375 -0.8125 C 20.5 -0.113281 19.601562 0.234375 18.65625 0.234375 C 17.71875 0.234375 17.050781 -0.148438 16.65625 -0.921875 L 11.125 -11.65625 L 8.46875 -11.65625 L 8.46875 -1.9375 C 8.46875 -1.320312 8.15625 -0.84375 7.53125 -0.5 C 6.914062 -0.164062 6.175781 0 5.3125 0 C 4.457031 0 3.71875 -0.164062 3.09375 -0.5 C 2.476562 -0.84375 2.171875 -1.320312 2.171875 -1.9375 Z M 8.46875 -16.484375 L 12.453125 -16.484375 C 13.640625 -16.484375 14.539062 -16.769531 15.15625 -17.34375 C 15.769531 -17.925781 16.078125 -18.890625 16.078125 -20.234375 C 16.078125 -21.578125 15.769531 -22.535156 15.15625 -23.109375 C 14.539062 -23.691406 13.640625 -23.984375 12.453125 -23.984375 L 8.46875 -23.984375 Z M 8.46875 -16.484375 "/></g></g><g style="fill:#62464b;fill-opacity:1;"><g transform="translate(174.170309, 41.38108)"><path style="stroke:none" d="M 0.359375 -1.65625 C 0.359375 -2.351562 0.585938 -3.09375 1.046875 -3.875 L 12.421875 -23.984375 L 3.0625 -23.984375 C 2.46875 -23.984375 2.003906 -24.25 1.671875 -24.78125 C 1.335938 -25.320312 1.171875 -25.96875 1.171875 -26.71875 C 1.171875 -27.476562 1.332031 -28.125 1.65625 -28.65625 C 1.976562 -29.195312 2.445312 -29.46875 3.0625 -29.46875 L 18.625 -29.46875 C 19.832031 -29.46875 20.4375 -28.914062 20.4375 -27.8125 C 20.4375 -27.164062 20.207031 -26.425781 19.75 -25.59375 L 8.390625 -5.484375 L 19.34375 -5.484375 C 19.914062 -5.484375 20.375 -5.203125 20.71875 -4.640625 C 21.070312 -4.078125 21.25 -3.441406 21.25 -2.734375 C 21.25 -2.035156 21.070312 -1.40625 20.71875 -0.84375 C 20.375 -0.28125 19.914062 0 19.34375 0 L 2.171875 0 C 0.960938 0 0.359375 -0.550781 0.359375 -1.65625 Z M 0.359375 -1.65625 "/></g></g></g></g><g clip-rule="nonzero" clip-path="url(#27ca91ddd8)"><g clip-rule="nonzero" clip-path="url(#6399cc78ff)"><g clip-rule="nonzero" clip-path="url(#bb335793a1)"><path style=" stroke:none;fill-rule:nonzero;fill:#f6a444;fill-opacity:1;" d="M 228.382812 116.21875 C 229.375 111.425781 220.21875 109.53125 218.867188 116.066406 C 217.695312 121.726562 223.347656 124.363281 225.746094 128.960938 C 229.773438 125.691406 236.007812 125.519531 237.179688 119.855469 C 238.53125 113.320312 229.375 111.425781 228.382812 116.21875 "/></g></g></g></g></svg>