<?xml version="1.0" encoding="UTF-8"?>
<svg version="1.1" xmlns="http://www.w3.org/2000/svg" width="848" height="848">
<path d="M0 0 C1.27308014 0.00054382 2.54616028 0.00108765 3.8578186 0.00164795 C24.80679959 0.0426578 45.25923363 1.00345986 65.9375 4.375 C66.59764099 4.48154907 67.25778198 4.58809814 67.93792725 4.69787598 C128.61641903 14.56114979 188.44411558 36.93730826 238.9375 72.375 C239.47745605 72.75188965 240.01741211 73.1287793 240.57373047 73.51708984 C256.70683175 84.80072527 271.98629893 96.9559322 286.55078125 110.20703125 C288.14248746 111.65285276 289.74413226 113.08780751 291.35546875 114.51171875 C300.03298963 122.1959463 308.4887098 130.25160624 315.99609375 139.09765625 C317.54981955 140.92023601 319.12579953 142.71174539 320.72265625 144.49609375 C338.71819077 164.72882013 354.2243822 187.05609957 367.9375 210.375 C368.34822754 211.07254395 368.75895508 211.77008789 369.18212891 212.48876953 C395.51324057 257.61115379 412.62289938 307.39863013 420.75 358.9375 C421.04245605 360.78855347 421.04245605 360.78855347 421.34082031 362.67700195 C421.92322351 366.57073197 422.45371811 370.46801117 422.9375 374.375 C423.03039307 375.12319 423.12328613 375.87138 423.21899414 376.64224243 C425.08272601 392.22664217 425.33778785 407.75533011 425.3125 423.4375 C425.31168427 425.34712021 425.31168427 425.34712021 425.31085205 427.2953186 C425.2698422 448.24429959 424.30904014 468.69673363 420.9375 489.375 C420.83095093 490.03514099 420.72440186 490.69528198 420.61462402 491.37542725 C410.75135021 552.05391903 388.37519174 611.88161558 352.9375 662.375 C352.56061035 662.91495605 352.1837207 663.45491211 351.79541016 664.01123047 C340.51177473 680.14433175 328.3565678 695.42379893 315.10546875 709.98828125 C313.65964724 711.57998746 312.22469249 713.18163226 310.80078125 714.79296875 C303.1165537 723.47048963 295.06089376 731.9262098 286.21484375 739.43359375 C284.39226399 740.98731955 282.60075461 742.56329953 280.81640625 744.16015625 C260.58367987 762.15569077 238.25640043 777.6618822 214.9375 791.375 C214.23995605 791.78572754 213.54241211 792.19645508 212.82373047 792.61962891 C167.70134621 818.95074057 117.91386987 836.06039938 66.375 844.1875 C64.52394653 844.47995605 64.52394653 844.47995605 62.63549805 844.77832031 C58.74176803 845.36072351 54.84448883 845.89121811 50.9375 846.375 C50.18931 846.46789307 49.44112 846.56078613 48.67025757 846.65649414 C33.08585783 848.52022601 17.55716989 848.77528785 1.875 848.75 C0.60191986 848.74945618 -0.67116028 848.74891235 -1.9828186 848.74835205 C-22.93179959 848.7073422 -43.38423363 847.74654014 -64.0625 844.375 C-64.72264099 844.26845093 -65.38278198 844.16190186 -66.06292725 844.05212402 C-126.74141903 834.18885021 -186.56911558 811.81269174 -237.0625 776.375 C-237.60245605 775.99811035 -238.14241211 775.6212207 -238.69873047 775.23291016 C-254.83183175 763.94927473 -270.11129893 751.7940678 -284.67578125 738.54296875 C-286.26748746 737.09714724 -287.86913226 735.66219249 -289.48046875 734.23828125 C-298.15798963 726.5540537 -306.6137098 718.49839376 -314.12109375 709.65234375 C-315.67481955 707.82976399 -317.25079953 706.03825461 -318.84765625 704.25390625 C-336.84319077 684.02117987 -352.3493822 661.69390043 -366.0625 638.375 C-366.47322754 637.67745605 -366.88395508 636.97991211 -367.30712891 636.26123047 C-393.63824057 591.13884621 -410.74789938 541.35136987 -418.875 489.8125 C-419.0699707 488.57846436 -419.26494141 487.34442871 -419.46582031 486.07299805 C-420.04822351 482.17926803 -420.57871811 478.28198883 -421.0625 474.375 C-421.15539307 473.62681 -421.24828613 472.87862 -421.34399414 472.10775757 C-423.20772601 456.52335783 -423.46278785 440.99466989 -423.4375 425.3125 C-423.43695618 424.03941986 -423.43641235 422.76633972 -423.43585205 421.4546814 C-423.3948422 400.50570041 -422.43404014 380.05326637 -419.0625 359.375 C-418.95595093 358.71485901 -418.84940186 358.05471802 -418.73962402 357.37457275 C-408.87635021 296.69608097 -386.50019174 236.86838442 -351.0625 186.375 C-350.68561035 185.83504395 -350.3087207 185.29508789 -349.92041016 184.73876953 C-338.63677473 168.60566825 -326.4815678 153.32620107 -313.23046875 138.76171875 C-311.78464724 137.17001254 -310.34969249 135.56836774 -308.92578125 133.95703125 C-301.2415537 125.27951037 -293.18589376 116.8237902 -284.33984375 109.31640625 C-282.51726399 107.76268045 -280.72575461 106.18670047 -278.94140625 104.58984375 C-258.70867987 86.59430923 -236.38140043 71.0881178 -213.0625 57.375 C-212.01618408 56.75890869 -212.01618408 56.75890869 -210.94873047 56.13037109 C-165.82634621 29.79925943 -116.03886987 12.68960062 -64.5 4.5625 C-63.26596436 4.3675293 -62.03192871 4.17255859 -60.76049805 3.97167969 C-56.86676803 3.38927649 -52.96948883 2.85878189 -49.0625 2.375 C-48.31431 2.28210693 -47.56612 2.18921387 -46.79525757 2.09350586 C-31.21085783 0.22977399 -15.68216989 -0.02528785 0 0 Z " fill="#0A4CB1" transform="translate(423.0625,-0.375)"/>
<path d="M0 0 C12.27299426 5.54177054 19.49825159 20.49754505 25.80517578 31.71337891 C30.02075952 39.17046004 34.00069248 44.85204515 41 50 C54.7503204 60.64063256 62.69210749 70.3376512 65 88 C65.24353093 92.39293744 65.29883806 96.77631973 65.30496025 101.1756134 C65.30869686 103.34100466 65.32562004 105.50596657 65.34571838 107.67126465 C65.40041462 113.82014849 65.43153704 119.96909434 65.45629883 126.11816406 C65.60749652 160.25220267 67.71588357 190.85885397 92.5625 217 C106.83550009 230.704703 123.98231225 240.27867296 141.13671875 249.87890625 C172.98819203 267.78627354 197.8973143 293.99142649 208.12084961 329.66503906 C217.75124859 365.27677918 211.43094187 401.26189753 196 434 C229.08258108 433.16451135 260.96141823 427.07791789 284.8125 402.25 C292.53540226 393.20924469 298.08693673 382.17594586 302 371 C302.47953125 369.63488281 302.47953125 369.63488281 302.96875 368.2421875 C309.00125916 347.29597514 305.46379929 324.75013838 295.26953125 305.86328125 C288.59475904 294.13638185 279.40244646 284.24097665 268.875 275.875 C249.13811879 259.95816032 233.57254272 241.03134218 228.3125 215.6875 C226.63899157 195.94010058 232.13546888 179.43815783 244.97265625 164.2109375 C257.43263035 150.62260351 274.45699486 142.54590026 292.875 141.625 C299.90135284 141.8158115 307.50010814 143.37196732 313.1953125 147.6484375 C315.80636511 150.42951214 317 152.00173419 317 155.875 C316 158 316 158 314 159 C312.1809082 158.88989258 312.1809082 158.88989258 309.98828125 158.58203125 C297.52657701 157.04019737 284.53452422 156.44955225 273 162 C272.13246094 162.4125 271.26492188 162.825 270.37109375 163.25 C257.8322904 169.98841035 250.97765437 181.3988408 246.125 194.33203125 C242.35921592 208.0091498 244.85766585 223.23991354 251.1875 235.625 C258.50947571 248.4846044 268.26970347 257.01593807 279.875 265.875 C299.65771646 281.18557591 313.08087851 297.07425223 319 322 C319.22558594 322.85335938 319.45117188 323.70671875 319.68359375 324.5859375 C325.64961733 350.67186128 318.35435921 380.33016094 305 403 C302.86435167 406.20813549 300.54221584 409.10829994 298 412 C297.40832031 412.73347656 296.81664062 413.46695312 296.20703125 414.22265625 C288.21676543 423.82745001 278.08628579 430.43503371 267 436 C273.24459512 437.10289428 279.36857278 437.15107142 285.69921875 437.17578125 C287.9824313 437.19895882 290.26563449 437.22307527 292.54882812 437.24804688 C296.13035575 437.28327825 299.71153226 437.3125895 303.29321289 437.32592773 C306.76230451 437.34135647 310.23039135 437.38150545 313.69921875 437.42578125 C314.77217697 437.42387283 315.84513519 437.42196442 316.9506073 437.41999817 C317.94876968 437.43648911 318.94693207 437.45298004 319.9753418 437.4699707 C320.85135544 437.47583694 321.72736908 437.48170319 322.62992859 437.48774719 C325.80839498 438.17472157 327.00104811 439.48106653 329 442 C329.875 445.625 329.875 445.625 330 449 C327.60352735 451.39647265 327.10052193 451.25053697 323.83622932 451.25333309 C322.95834853 451.25894849 322.08046774 451.26456388 321.1759845 451.27034944 C320.2055857 451.26636835 319.2351869 451.26238726 318.23538208 451.25828552 C316.69581087 451.26379908 316.69581087 451.26379908 315.12513721 451.26942402 C311.66296505 451.27945686 308.20095186 451.27524264 304.73876953 451.27124023 C302.26536385 451.27562446 299.79195965 451.28092549 297.31855774 451.28707886 C291.97927894 451.29860715 286.64004214 451.30423278 281.30075455 451.30496025 C273.5679156 451.30628514 265.83514917 451.32139177 258.1023358 451.34045542 C245.53991253 451.37132642 232.97748741 451.3954748 220.41503906 451.41333008 C219.66269225 451.41440276 218.91034544 451.41547544 218.13520025 451.41658062 C209.75299724 451.42838521 201.3707935 451.43859101 192.98858643 451.44702148 C189.95528156 451.45009498 186.9219767 451.45318386 183.88867188 451.45629883 C183.14027228 451.45706417 182.39187268 451.45782951 181.62079431 451.45861804 C169.11818561 451.47172398 156.61562901 451.49640175 144.11305892 451.53004223 C136.40639234 451.55028361 128.69983744 451.56062833 120.99314408 451.55805302 C115.07547625 451.55689048 109.1579076 451.57110818 103.24027061 451.59086227 C100.82002964 451.59644672 98.39977061 451.59696095 95.97952843 451.59192467 C73.97791107 451.33211296 73.97791107 451.33211296 54.4375 460.4375 C48.19057847 464.71101289 42.39024439 468.05961168 35 470 C34.23558594 470.20882813 33.47117187 470.41765625 32.68359375 470.6328125 C20.91490136 473.53916784 8.86309925 473.13710091 -3.16577148 473.10864258 C-5.10928138 473.10769793 -7.05279153 473.10717496 -8.99630165 473.1070385 C-14.28205172 473.10529258 -19.56777391 473.09708997 -24.85351491 473.08752418 C-29.34419612 473.08011685 -33.83487772 473.07623355 -38.32556313 473.07232529 C-52.6794898 473.05968559 -67.03338199 473.03457621 -81.38728619 473.006814 C-86.11279892 472.99790113 -90.83831301 472.98992078 -95.5638274 472.98194182 C-122.11567428 472.9367318 -148.66734846 472.86789634 -175.21903419 472.76426506 C-188.19581005 472.71388182 -201.17254088 472.67384028 -214.14938456 472.64570588 C-223.5111146 472.62456342 -232.87276484 472.59217661 -242.2344293 472.55129844 C-247.74730915 472.5275373 -253.26009763 472.50868965 -258.77302742 472.50238609 C-263.86576383 472.49638068 -268.9582527 472.47654972 -274.0508976 472.44572449 C-275.91178933 472.43691537 -277.77271328 472.4332276 -279.63362503 472.43499184 C-282.16477645 472.43663567 -284.69516463 472.42003095 -287.22621155 472.39872742 C-288.33104207 472.40599878 -288.33104207 472.40599878 -289.45819241 472.41341704 C-292.57171286 472.36993869 -294.69971787 472.16983601 -297.43474483 470.6229372 C-299.53216448 468.44822445 -299.79027273 466.80380167 -300.2734375 463.8359375 C-300.45495361 462.8044458 -300.63646973 461.7729541 -300.82348633 460.71020508 C-301.00548584 459.6095874 -301.18748535 458.50896973 -301.375 457.375 C-304.30479586 441.43376535 -308.86216358 418.68614213 -322.7578125 408.15234375 C-326.47429866 406.24230295 -330.45963118 405.11120971 -334.43945312 403.88134766 C-343.4579359 401.02879166 -348.29063225 396.76570515 -352.8125 388.49609375 C-356.5717915 380.59416195 -357.67817178 371.03569737 -355.3125 362.52734375 C-353.23852989 357.90411871 -350.69980359 355.12821295 -346 353 C-341.9831931 352.16438689 -338.63280149 352.10966701 -334.97265625 354.10546875 C-328.40730808 359.28279405 -326.68737331 366.4902968 -324.875 374.3125 C-323.8103229 379.28307483 -323.8103229 379.28307483 -322 384 C-320.03144561 384.08995722 -320.03144561 384.08995722 -318 383 C-317.05059951 380.46004544 -316.37066287 378.12210694 -315.75 375.5 C-308.97719904 350.07835779 -293.25587626 328.46152561 -270.55859375 314.921875 C-256.05113325 306.84829798 -240.86665046 303.44587484 -224.3125 303.625 C-222.99975098 303.63080078 -221.68700195 303.63660156 -220.33447266 303.64257812 C-211.5635033 303.75927945 -203.28782491 304.62298879 -194.703125 306.3203125 C-182.03225026 308.64597938 -169.87216929 306.40700008 -158.73828125 299.9296875 C-151.51566847 294.83985766 -143.21990958 287.43224939 -140 279 C-139.84833556 276.34864372 -139.84833556 276.34864372 -140 274 C-147.49603521 273.63663743 -154.28350304 274.13331954 -161.625 275.5 C-190.95860253 280.68610128 -223.67415644 276.79314024 -248.8828125 260.08984375 C-255.19957155 255.34756046 -261.05524713 249.81823963 -262.625 241.8125 C-261.23880351 235.5746158 -258.235695 232.93120077 -253.0625 229.5 C-231.13303264 216.37708228 -205.17157867 211.30894455 -179.9375 217.5 C-177.60502961 218.27568201 -175.29280519 219.1139159 -173 220 C-171.43236216 220.5652997 -169.8646483 221.1303886 -168.296875 221.6953125 C-155.02414933 226.62759722 -142.71976787 233.06085599 -130.796875 240.67578125 C-127.95476407 242.47196442 -125.19510971 243.90168104 -122 245 C-124.82741386 238.96155331 -128.01952345 233.2403778 -131.5 227.5625 C-143.56426316 207.63443625 -147.08758018 186.56941528 -147.25 163.5 C-147.2593457 162.5922583 -147.26869141 161.6845166 -147.27832031 160.74926758 C-147.25123822 155.08442243 -146.97403191 149.36911965 -145 144 C-140.36049433 141.68024716 -135.58848004 142.92368159 -130.875 144.4375 C-110.87425697 152.25672053 -95.88663194 170.3505091 -87.20385742 189.52075195 C-80.35747923 205.49285387 -80.12308354 221.97368636 -82 239 C-81.195625 239.185625 -81.195625 239.185625 -80.375 239.375 C-58.50111984 245.13128425 -37.63400824 259.95119699 -25.625 279.125 C-22.15248708 285.26576535 -20.29597561 290.67117399 -21.33984375 297.73828125 C-24.21191735 307.57810738 -34.421733 314.27052268 -42.8125 319.0625 C-43.4108667 319.41094971 -44.0092334 319.75939941 -44.62573242 320.1184082 C-47.51539534 321.76124446 -50.13917079 323.04628085 -53.3125 324.1015625 C-56.76199016 325.35020607 -58.61523061 326.18374509 -61 329 C-62.23589798 333.98152542 -61.94638392 339.16447383 -61.91796875 344.26171875 C-61.90575283 349.81996434 -62.62749543 355.00349721 -63.75 360.4375 C-63.96837524 361.56889404 -63.96837524 361.56889404 -64.19116211 362.72314453 C-66.91830418 375.61785895 -72.33346149 387.13462952 -78.5625 398.625 C-87.46072086 414.63709177 -87.46072086 414.63709177 -90.5 432.4375 C-90.5103125 433.57058594 -90.520625 434.70367188 -90.53125 435.87109375 C-89.8596415 439.82667029 -88.99155667 441.31408225 -86 444 C-83.11807819 445.23233323 -80.14976215 446.00798693 -77.125 446.8125 C-67.27759201 449.70776463 -67.27759201 449.70776463 -64.0625 454.3125 C-63.70285156 454.98925781 -63.34320313 455.66601562 -62.97265625 456.36328125 C-62.03178365 458.35273401 -62.03178365 458.35273401 -59 459 C-57.16373812 459.10326743 -55.32398342 459.14852349 -53.48486328 459.16113281 C-51.78500778 459.17554413 -51.78500778 459.17554413 -50.05081177 459.19024658 C-48.81974701 459.19449646 -47.58868225 459.19874634 -46.3203125 459.203125 C-45.04259979 459.20882507 -43.76488708 459.21452515 -42.44845581 459.22039795 C-39.72979335 459.23091677 -37.01116042 459.2367493 -34.29248047 459.24023438 C-31.54624779 459.24456901 -28.80033819 459.25825799 -26.05419922 459.28125 C1.13470458 459.50438823 23.21244935 458.05271597 47.00390625 444.2734375 C50.72993541 442.12751903 54.52132895 440.155388 58.375 438.25 C59.50421875 437.68796875 60.6334375 437.1259375 61.796875 436.546875 C63.83238447 435.56387286 65.88346432 434.61202361 67.953125 433.703125 C69.27570313 433.10757813 69.27570313 433.10757813 70.625 432.5 C71.38039063 432.1803125 72.13578125 431.860625 72.9140625 431.53125 C77.90098176 427.87044036 79.16952558 423.03095542 80.08984375 417.19140625 C80.38216159 414.98304155 80.66429313 412.77331034 80.9375 410.5625 C84.68489725 383.85209129 94.67783997 363.76996014 113 344 C104.1614507 344.3399442 95.83617098 348.06189619 89.25 354 C76.26108331 368.44620978 71.97913486 387.28420594 71.5703125 406.1484375 C71.39085395 410.84426945 71.13167175 414.2419939 68 418 C64.8125 419.25 64.8125 419.25 61 419 C57.94069839 417.0526253 55.5133523 414.59863572 53 412 C51.89699799 410.87385809 50.79286044 409.74882709 49.6875 408.625 C49.12675781 408.05007813 48.56601562 407.47515625 47.98828125 406.8828125 C45.56862681 404.59150908 42.98977045 402.56521361 40.375 400.5 C35.18025737 396.31851761 31.15444584 392.46333752 29 386 C28.43721627 378.92593945 29.53648493 372.39092349 31 365.5 C35.17786559 343.99927706 33.13352184 326.57171711 21 308 C18.7689137 304.90336987 16.4414332 301.93136157 14 299 C14.08040527 299.55236328 14.16081055 300.10472656 14.24365234 300.67382812 C14.90599088 305.2355549 15.55867873 309.79843924 16.19921875 314.36328125 C16.65291619 317.59513552 17.12456406 320.8211625 17.64453125 324.04296875 C23.40688689 362.72122642 15.80892658 405.07522595 -7.5 437.125 C-11.60144021 442.09928675 -16.59569183 445.76888057 -23 447 C-27.38718005 447.36845457 -31.21101406 447.52599063 -35 445 C-35.34858294 439.52027615 -34.32062661 435.9127111 -31.875 431.125 C-28.48867171 423.98660607 -26.43884646 416.7406282 -24.625 409.0625 C-24.37476074 408.00885254 -24.12452148 406.95520508 -23.86669922 405.86962891 C-19.25060006 385.60562724 -20.13061333 366.38676307 -26.25 346.5625 C-28.29821427 339.63796021 -28.76805895 334.61299003 -25.5625 328.0625 C-23.21829053 325.26088381 -20.77460558 322.88116828 -18.125 320.375 C-11.03213494 313.34508936 -6.75483449 306.26466765 -6.3125 296.125 C-7.11792437 280.19160482 -15.70187695 267.10229771 -25.75 255.3125 C-35.31128649 244.01279778 -37.02056514 232.29083626 -36 218 C-34.2543564 203.04597117 -28.22053203 190.74643711 -20.37744141 178.10717773 C-14.25476559 168.22974648 -10.4655756 158.83211701 -12 147 C-13.64766439 140.7105284 -15.49973521 136.69155238 -21 133 C-23.84668867 131.64705764 -26.76519115 130.49087967 -29.6875 129.3125 C-39.05983026 125.32572024 -48.37009287 120.06571545 -52.43359375 110.15234375 C-53.95637045 104.3657923 -54.1996684 99.45676773 -51.53125 93.9921875 C-49.33610826 90.50414449 -46.96440373 87.22634054 -44.41796875 83.98828125 C-42.33676592 81.07001062 -40.9726435 77.87941004 -39.4765625 74.6328125 C-35.10368489 66.83567094 -29.07662086 63.18251029 -21.59375 58.67578125 C-12.47366212 52.91492574 -8.94474849 45.19198428 -6 35 C-4.9358862 30.27514412 -4.10281133 25.52744468 -3.3125 20.75 C-2.99442383 18.90921875 -2.99442383 18.90921875 -2.66992188 17.03125 C-1.69792923 11.36487019 -0.76702333 5.69788763 0 0 Z " fill="#FEFEFE" transform="translate(431,180)"/>
<path d="M0 0 C8.84775323 6.69597964 14.99809928 15.46691668 16.625 26.6875 C17.14941259 35.51175034 16.89558947 43.41368736 13.625 51.6875 C14.8315625 51.72488281 16.038125 51.76226563 17.28125 51.80078125 C18.89586178 51.86649219 20.51044378 51.93293771 22.125 52 C22.91648437 52.02255859 23.70796875 52.04511719 24.5234375 52.06835938 C30.12863323 52.32105263 34.51891006 53.30955325 39.625 55.6875 C40.615 57.1725 40.615 57.1725 41.625 58.6875 C34.74954628 59.99416206 27.97677448 59.87158001 21 59.875 C19.66406052 59.88715374 18.32812296 59.89952163 16.9921875 59.91210938 C15.72375 59.91404297 14.4553125 59.91597656 13.1484375 59.91796875 C11.414729 59.92413208 11.414729 59.92413208 9.64599609 59.93041992 C6.73349945 59.6962245 5.08149169 59.20802391 2.625 57.6875 C2.73328125 56.77484375 2.73328125 56.77484375 2.84375 55.84375 C5.06617872 36.27733066 5.06617872 36.27733066 -1.91796875 18.48046875 C-6.50476004 12.82307629 -12.10917851 8.1574408 -19.375 6.6875 C-21.18081755 6.60758896 -22.98931809 6.57980177 -24.796875 6.58984375 C-25.82167969 6.59306641 -26.84648437 6.59628906 -27.90234375 6.59960938 C-29.49755859 6.61217773 -29.49755859 6.61217773 -31.125 6.625 C-32.20394531 6.62951172 -33.28289062 6.63402344 -34.39453125 6.63867188 C-37.05474383 6.65044273 -39.71484365 6.66688601 -42.375 6.6875 C-41.92074761 2.517696 -41.55106604 0.13164359 -38.25 -2.5625 C-26.69151081 -11.51857073 -11.22943163 -7.48628775 0 0 Z " fill="#0B44B8" transform="translate(206.375,563.3125)"/>
<path d="M0 0 C3.90475253 3.49372595 5.42967618 6.06469656 7 11 C7.99 11.33 8.98 11.66 10 12 C12.36005856 15.2677734 13.37603433 18.04821745 14 22 C14.33 22.99 14.66 23.98 15 25 C15.66 25.33 16.32 25.66 17 26 C16.95875 26.680625 16.9175 27.36125 16.875 28.0625 C17.02659174 31.62490588 17.99012285 34.57763854 19 38 C20.63919337 44.26195452 21.28484698 50.49640964 21.6875 56.9375 C21.73592041 57.68370605 21.78434082 58.42991211 21.83422852 59.19873047 C22.00926028 62.45781454 22.04177771 64.87466687 21 68 C20.82289011 69.87230458 20.68132217 71.74809466 20.5625 73.625 C19.89276254 82.1873359 17.94151883 89.95267409 15 98 C14.60039063 99.12535156 14.20078125 100.25070312 13.7890625 101.41015625 C10.33156774 110.79954266 5.75326617 118.83277599 0 127 C-0.95132813 128.35351562 -0.95132813 128.35351562 -1.921875 129.734375 C-5.22637143 134.20860468 -8.22261277 137.17699846 -13 140 C-13.43441406 140.45246094 -13.86882812 140.90492188 -14.31640625 141.37109375 C-16.5558214 143.53776688 -19.04603426 145.04046842 -21.6875 146.6875 C-23.17830078 147.62142578 -23.17830078 147.62142578 -24.69921875 148.57421875 C-25.45847656 149.04472656 -26.21773437 149.51523437 -27 150 C-24.14679291 150.81742268 -21.65742583 151.11123856 -18.69384766 151.06591797 C-17.8526236 151.05615936 -17.01139954 151.04640076 -16.14468384 151.03634644 C-14.79302628 151.01448776 -14.79302628 151.01448776 -13.4140625 150.9921875 C-11.49479697 150.9746695 -9.57552579 150.95776138 -7.65625 150.94140625 C-4.63883799 150.91046599 -1.62170925 150.87494946 1.39550781 150.82861328 C4.31318657 150.78616911 7.23053367 150.76280396 10.1484375 150.7421875 C11.49402237 150.71425613 11.49402237 150.71425613 12.86679077 150.6857605 C18.00274397 150.66482781 21.56845786 151.09264907 26 154 C27.375 156.1875 27.375 156.1875 28 158 C28.66 158 29.32 158 30 158 C30.144375 158.78375 30.28875 159.5675 30.4375 160.375 C30.87798925 162.96421018 30.87798925 162.96421018 32 165 C23.72460821 170.45823714 15.34995774 170.15127609 5.64347839 170.11352539 C4.13547156 170.11374868 4.13547156 170.11374868 2.59699994 170.11397648 C-0.75151726 170.11328532 -4.09997873 170.10545833 -7.44848633 170.09765625 C-9.85708587 170.09573598 -12.26568581 170.0942727 -14.67428589 170.0932312 C-20.52383117 170.08966508 -26.37335805 170.08160064 -32.22289584 170.07176852 C-39.03723429 170.06067339 -45.8515724 170.05614049 -52.66591819 170.05223143 C-64.8221235 170.04517499 -76.97832212 170.03438025 -89.13452148 170.02050781 C-89.86108335 170.01968 -90.58764521 170.01885219 -91.3362241 170.01799929 C-96.49498285 170.01209733 -101.65374144 170.00606207 -106.8125 170 C-112.71411122 169.9930681 -118.61572251 169.98620222 -124.51733398 169.97949219 C-125.24452178 169.97866406 -125.97170957 169.97783593 -126.72093336 169.97698271 C-138.83948865 169.96330402 -150.95804406 169.95354197 -163.07660502 169.94658184 C-170.54804587 169.94209966 -178.01946695 169.93405762 -185.49089857 169.92143703 C-191.20855049 169.91202727 -196.92619734 169.90766926 -202.64385605 169.9051857 C-204.99168159 169.9033086 -207.33950646 169.89969761 -209.68732643 169.89425278 C-212.88436592 169.88706997 -216.08135046 169.88599753 -219.27839661 169.88647461 C-220.2138885 169.88287965 -221.14938038 169.87928469 -222.11322051 169.87558079 C-222.96906633 169.87695514 -223.82491215 169.87832949 -224.7066927 169.87974548 C-225.81347416 169.87836279 -225.81347416 169.87836279 -226.94261485 169.87695217 C-229.07100859 170.00424687 -230.95296704 170.41782663 -233 171 C-233 170.01 -233 169.02 -233 168 C-227.53739305 166.86218316 -222.23207736 166.85021138 -216.68034363 166.84851074 C-215.6427839 166.84427833 -214.60522417 166.84004592 -213.53622323 166.83568525 C-210.06084982 166.82267268 -206.58549934 166.81663771 -203.11010742 166.81054688 C-200.61826437 166.80260368 -198.1264227 166.79421566 -195.63458252 166.78541565 C-190.27026413 166.76736589 -184.90594952 166.75223833 -179.54161644 166.73963928 C-171.78464324 166.72132866 -164.02769999 166.69666559 -156.27075056 166.67026538 C-143.68352108 166.62750531 -131.09628338 166.5883794 -118.5090332 166.55224609 C-117.37957788 166.54900189 -117.37957788 166.54900189 -116.22730527 166.54569215 C-110.11493964 166.52816328 -104.00257351 166.51081226 -97.89020729 166.49348927 C-92.53984174 166.47832234 -87.18947639 166.46309121 -81.83911133 166.44775391 C-81.08554319 166.44559504 -80.33197505 166.44343617 -79.55557152 166.44121188 C-67.00883695 166.40514707 -54.46211766 166.36520227 -41.91540414 166.32245111 C-34.17315856 166.29625936 -26.43091769 166.27360914 -18.68864898 166.25546753 C-12.76672242 166.24134436 -6.84481899 166.22222079 -0.9229126 166.20121574 C1.51324156 166.19342889 3.94940191 166.18737292 6.3855648 166.18312263 C9.69549735 166.17711952 13.00535315 166.1650933 16.31526184 166.15148926 C17.78136838 166.15104528 17.78136838 166.15104528 19.27709323 166.15059233 C20.59647814 166.14330571 20.59647814 166.14330571 21.94251728 166.13587189 C23.08989997 166.13269793 23.08989997 166.13269793 24.26046211 166.12945986 C26.02947877 166.1880804 26.02947877 166.1880804 27 165 C26.74257942 160.36745232 26.74257942 160.36745232 24.75709534 156.29946899 C22.44291755 154.58800678 21.00136917 154.61015091 18.13647461 154.58349609 C17.14791977 154.56692963 16.15936493 154.55036316 15.14085388 154.53329468 C14.07214554 154.53004181 13.00343719 154.52678894 11.90234375 154.5234375 C10.79830704 154.50785797 9.69427032 154.49227844 8.55677795 154.47622681 C5.01702658 154.42862958 1.47747058 154.40095674 -2.0625 154.375 C-5.57733375 154.33834444 -9.09206114 154.29747341 -12.60679626 154.25234985 C-14.79387723 154.22544078 -16.98103407 154.20395577 -19.16822815 154.18881226 C-25.49946442 154.12452294 -31.71265134 153.75296612 -38 153 C-35.33923635 151.22615757 -32.70725276 149.78511005 -29.875 148.3125 C-24.43717293 145.36074143 -19.73830058 141.95880196 -15 138 C-14.00033203 137.21882813 -14.00033203 137.21882813 -12.98046875 136.421875 C5.70533263 121.2373579 14.87275192 95.59564093 17.76855469 72.32177734 C20.13495177 48.58292053 15.75325163 24.8752438 1.5390625 5.390625 C0 3 0 3 0 0 Z " fill="#1294D4" transform="translate(733,464)"/>
<path d="M0 0 C15.50566829 12.20658993 24.00306106 28.34190182 29 47 C29.17885742 47.62084473 29.35771484 48.24168945 29.54199219 48.88134766 C34.08103186 69.87803546 28.1034071 92.93392642 16.86816406 110.79980469 C14.45341872 114.37957687 11.80059753 117.71724832 9 121 C8.46117187 121.639375 7.92234375 122.27875 7.3671875 122.9375 C-8.76859388 140.45171497 -34.58989339 150.33611077 -58 152 C-61.83479419 152.10630906 -65.66414579 152.09522054 -69.5 152.0625 C-70.51320313 152.05798828 -71.52640625 152.05347656 -72.5703125 152.04882812 C-75.04693827 152.03714593 -77.52343657 152.02076582 -80 152 C-78.27633755 146.62435616 -76.37560851 141.4324823 -74.125 136.25 C-71.53287653 130.01226972 -69.74770774 123.69246689 -68.1875 117.125 C-67.9807666 116.2577832 -67.7740332 115.39056641 -67.56103516 114.49707031 C-65.26828334 104.41976084 -64.80626237 94.69965592 -64.8125 84.375 C-64.81258057 83.13548584 -64.81266113 81.89597168 -64.81274414 80.61889648 C-64.87794351 70.14925047 -65.90253939 60.26055053 -68 50 C-67.01 50 -66.02 50 -65 50 C-64.6864357 51.85398698 -64.37420451 53.70819944 -64.0625 55.5625 C-63.88847656 56.59503906 -63.71445312 57.62757813 -63.53515625 58.69140625 C-60.46834933 77.65188409 -58.84676924 97.54030771 -65 116 C-65 117.03125 -65 118.0625 -65 119.125 C-65 122.24221199 -65.47412425 123.34979476 -67 126 C-69.30519093 130.81498187 -69.30519093 130.81498187 -70 136 C-70 136.66 -70 137.32 -70 138 C-70.67482422 138.65935547 -70.67482422 138.65935547 -71.36328125 139.33203125 C-73.29788324 141.30357075 -74.12077192 143.14942285 -75.1875 145.6875 C-75.53167969 146.49574219 -75.87585938 147.30398438 -76.23046875 148.13671875 C-76.48441406 148.75160156 -76.73835937 149.36648438 -77 150 C-75.16675453 150.02749868 -73.3333829 150.04661673 -71.5 150.0625 C-69.96859375 150.07990234 -69.96859375 150.07990234 -68.40625 150.09765625 C-61.65085656 149.90398098 -55.01927068 148.72763739 -48.375 147.5625 C-47.65054688 147.44068359 -46.92609375 147.31886719 -46.1796875 147.19335938 C-42.84644523 146.61064583 -39.81731345 145.93763459 -36.6015625 144.83984375 C-34 144 -34 144 -32 145 C-32 144.34 -32 143.68 -32 143 C-31.05125 142.773125 -30.1025 142.54625 -29.125 142.3125 C-24.93112902 141.13617034 -21.25278265 139.17921366 -17.4296875 137.12109375 C-14.94297164 135.97368627 -12.69620917 135.42697974 -10 135 C-10 134.34 -10 133.68 -10 133 C-8.20963542 132.0234375 -6.41927083 131.046875 -4.62890625 130.0703125 C-2.83381685 129.08589976 -2.83381685 129.08589976 -2 127 C-1.01 126.67 -0.02 126.34 1 126 C1.99 124.515 1.99 124.515 3 123 C3.66 123 4.32 123 5 123 C5.495 121.515 5.495 121.515 6 120 C6.66 120 7.32 120 8 120 C8 119.01 8 118.02 8 117 C8.66 117 9.32 117 10 117 C10.495 115.515 10.495 115.515 11 114 C11.66 114 12.32 114 13 114 C13.185625 112.8553125 13.185625 112.8553125 13.375 111.6875 C14 109 14 109 16 106 C16.66 106 17.32 106 18 106 C18.11601563 105.46375 18.23203125 104.9275 18.3515625 104.375 C19.14222936 101.47906354 20.24949409 98.78306917 21.375 96 C29.97896372 73.74408229 28.29693396 54.45906447 22 32 C21.34 32 20.68 32 20 32 C19.01 28.37 18.02 24.74 17 21 C16.34 21 15.68 21 15 21 C15 20.01 15 19.02 15 18 C14.34 18 13.68 18 13 18 C12.566875 17.2575 12.13375 16.515 11.6875 15.75 C9.82408081 12.71331688 7.76648419 11.19900026 5 9 C4.30062468 7.68352881 3.63270867 6.34977849 3 5 C1.70529025 3.62913085 0.37849103 2.28659163 -1 1 C-0.67 0.67 -0.34 0.34 0 0 Z " fill="#1388D2" transform="translate(707,462)"/>
<path d="M0 0 C1.0704594 -0.00282234 2.14091881 -0.00564468 3.24381638 -0.00855255 C4.40582188 -0.0065258 5.56782738 -0.00449905 6.76504517 -0.00241089 C8.6239784 -0.00500538 8.6239784 -0.00500538 10.52046585 -0.00765228 C13.93102844 -0.01125784 17.34153166 -0.01034402 20.75209093 -0.00724077 C23.64380348 -0.00534019 26.53550975 -0.00694304 29.42722213 -0.0085777 C37.16446533 -0.01293015 44.90169006 -0.01003484 52.63893116 -0.0035814 C58.25441519 0.00106702 63.86989632 0.00346209 69.48538208 0.00466919 C117.82945147 0.01708607 166.16460618 0.25106892 214.50186157 1.12698364 C214.50186157 1.45698364 214.50186157 1.78698364 214.50186157 2.12698364 C190.00373453 3.12428227 165.537993 3.24965555 141.02245426 3.19544601 C135.79544023 3.18528604 130.56842195 3.18192232 125.34140015 3.17800903 C112.14487732 3.16704428 98.9483726 3.14741697 85.75186157 3.12698364 C71.39891884 3.10487776 57.04598262 3.08440149 42.6930263 3.07356548 C36.49218551 3.06859282 30.29137752 3.05875274 24.09054995 3.0451355 C20.25542666 3.03769277 16.42030791 3.03436429 12.58517838 3.03216934 C10.8065654 3.03029418 9.0279533 3.02668699 7.24934769 3.02123642 C4.82643807 3.01404219 2.40360083 3.01298162 -0.01931763 3.01345825 C-1.0780191 3.00806581 -1.0780191 3.00806581 -2.15810847 3.00256443 C-5.41938258 3.00945922 -8.37907977 3.12383544 -11.49813843 4.12698364 C-11.49813843 3.13698364 -11.49813843 2.14698364 -11.49813843 1.12698364 C-7.61709028 0.40806088 -3.94526565 0.00161161 0 0 Z " fill="#0884D1" transform="translate(511.4981384277344,630.8730163574219)"/>
<path d="M0 0 C6.64615385 2.46153846 6.64615385 2.46153846 8.4375 5.1875 C8.623125 5.785625 8.80875 6.38375 9 7 C9.66 7 10.32 7 11 7 C11.2165625 8.175625 11.2165625 8.175625 11.4375 9.375 C11.87798925 11.96421018 11.87798925 11.96421018 13 14 C4.68021469 19.48751797 -3.74501145 19.15264395 -13.50390625 19.09765625 C-14.94974342 19.09553383 -14.94974342 19.09553383 -16.42478943 19.09336853 C-19.47072598 19.08781942 -22.51658607 19.07527669 -25.5625 19.0625 C-27.64127497 19.05747841 -29.72005111 19.05291666 -31.79882812 19.04882812 C-36.86591439 19.03786671 -41.93294428 19.0206378 -47 19 C-47 18.67 -47 18.34 -47 18 C-76.205 17.505 -76.205 17.505 -106 17 C-106 16.67 -106 16.34 -106 16 C-105.41855004 15.99576806 -104.83710009 15.99153612 -104.23803043 15.98717594 C-90.10920734 15.88400309 -75.98043495 15.77538567 -61.85170078 15.66066074 C-55.01923417 15.60531349 -48.18676233 15.55182908 -41.35424805 15.50268555 C-34.76660723 15.45529811 -28.17902051 15.40277841 -21.59144402 15.34705925 C-19.0719327 15.32660102 -16.55240657 15.30789383 -14.03286934 15.29092598 C-10.51738219 15.26695848 -7.00199815 15.23689381 -3.48657227 15.20532227 C-2.43353409 15.1995668 -1.38049591 15.19381134 -0.29554749 15.18788147 C0.65662659 15.17809265 1.60880066 15.16830383 2.58982849 15.15821838 C3.42220756 15.15176583 4.25458662 15.14531328 5.11218929 15.1386652 C7.01198898 15.20581349 7.01198898 15.20581349 8 14 C7.7412218 9.37160568 7.7412218 9.37160568 5.76701355 5.30046082 C3.41119824 3.56666228 1.88966332 3.60357609 -1.0222168 3.56762695 C-2.04304855 3.54783279 -3.06388031 3.52803864 -4.11564636 3.50764465 C-5.21572525 3.50125473 -6.31580414 3.49486481 -7.44921875 3.48828125 C-8.5769722 3.47033005 -9.70472565 3.45237885 -10.86665344 3.43388367 C-14.4735641 3.37964147 -18.08034138 3.34583965 -21.6875 3.3125 C-24.13087799 3.27933929 -26.57423835 3.24485081 -29.01757812 3.20898438 C-35.01159916 3.12390701 -41.00563716 3.05561608 -47 3 C-47 2.67 -47 2.34 -47 2 C-31.49 2 -15.98 2 0 2 C0 1.34 0 0.68 0 0 Z " fill="#2BA7DB" transform="translate(752,615)"/>
<path d="M0 0 C1.65 0 3.3 0 5 0 C5 0.66 5 1.32 5 2 C5.66 2 6.32 2 7 2 C9.99130324 4.5977107 12.22215231 7.17791822 14.125 10.625 C15.65566347 13.38019424 16.79540968 14.90039017 19 17 C19.33 17.99 19.66 18.98 20 20 C20.99 20.66 21.98 21.32 23 22 C23.87728152 24.27160819 24.45032985 26.54970557 25.05859375 28.90625 C26.24861008 31.55292532 27.4263493 31.830623 30 33 C31.0625 35.8125 31.0625 35.8125 32 39 C34.17813089 43.07215776 35.97958498 46.27472281 40.4375 47.875 C43.64865334 49.28477464 44.99428583 51.17714301 47 54 C46.505 54.99 46.505 54.99 46 56 C44.26485705 54.63254934 42.53716448 53.2556429 40.8125 51.875 C39.36810547 50.72644531 39.36810547 50.72644531 37.89453125 49.5546875 C32.01606411 44.36640476 28.50653038 38.66055416 24.75 31.875 C15.42365211 14.57755127 15.42365211 14.57755127 1 2 C0.98582031 2.7321875 0.97164063 3.464375 0.95703125 4.21875 C0.58843504 12.5868801 -0.74696067 20.55536836 -2.4375 28.75 C-2.65494873 29.82185547 -2.87239746 30.89371094 -3.09643555 31.99804688 C-3.31082275 33.00416016 -3.52520996 34.01027344 -3.74609375 35.046875 C-3.93872803 35.95276367 -4.1313623 36.85865234 -4.32983398 37.79199219 C-5 40 -5 40 -7 42 C-6.67 37.71 -6.34 33.42 -6 29 C-5.34 29 -4.68 29 -4 29 C-4.02320313 28.35675781 -4.04640625 27.71351563 -4.0703125 27.05078125 C-4.22069868 19.52073039 -3.31863772 12.40556362 -2 5 C-1.34 5 -0.68 5 0 5 C0 3.35 0 1.7 0 0 Z " fill="#091795" transform="translate(430,178)"/>
<path d="M0 0 C28.92082092 -0.16571345 57.83210446 0.12360619 86.75 0.5 C87.66896057 0.51195782 88.58792114 0.52391563 89.534729 0.53623581 C101.02321686 0.68616016 112.51163584 0.84088351 124 1 C124 1.33 124 1.66 124 2 C98.84579623 3.03843628 73.71815325 3.12522267 48.54571533 3.06866455 C43.38855413 3.05822642 38.23138758 3.05382419 33.07421875 3.04882812 C23.04946572 3.03827004 13.02473553 3.02132408 3 3 C3 2.34 3 1.68 3 1 C2.01 0.67 1.02 0.34 0 0 Z " fill="#0C92D4" transform="translate(602,631)"/>
<path d="M0 0 C0.99 0 1.98 0 3 0 C1.72019455 4.58596952 0.36190566 7.60739201 -3 11 C-6.32579589 12.84753826 -9.80490064 14.28441525 -13.3125 15.75 C-20.19081378 18.734727 -26.77753826 21.81275278 -33.125 25.8125 C-48.60387897 35.47115359 -68.59178456 41.46531447 -87.02734375 38.515625 C-87.67832031 38.34546875 -88.32929688 38.1753125 -89 38 C-89 37.67 -89 37.34 -89 37 C-87.35064453 36.92652344 -87.35064453 36.92652344 -85.66796875 36.8515625 C-78.12111314 36.48213002 -70.77954619 36.00661658 -63.36328125 34.46484375 C-61.11056403 34.0217473 -58.90961139 33.77019194 -56.625 33.5625 C-52.93094161 32.98928404 -51.08318206 31.99990188 -48 30 C-47.21625 29.855625 -46.4325 29.71125 -45.625 29.5625 C-41.12862793 28.5989917 -37.25613792 26.25613792 -34 23 C-33.319375 22.67 -32.63875 22.34 -31.9375 22 C-29.83134399 21.15410058 -29.83134399 21.15410058 -29 19 C-27.00428677 18.32060826 -25.00405227 17.65438441 -23 17 C-22.34 16.34 -21.68 15.68 -21 15 C-18.67724823 14.59952556 -16.34260643 14.2602896 -14 14 C-14 13.34 -14 12.68 -14 12 C-12.783125 11.608125 -11.56625 11.21625 -10.3125 10.8125 C-6.25859314 9.28869104 -3.75238813 7.41963374 -1 4 C-0.13880866 1.82653432 -0.13880866 1.82653432 0 0 Z " fill="#106DCB" transform="translate(508,601)"/>
<path d="M0 0 C3.16697888 2.68124592 4.77847638 6.11768452 6.625 9.75 C9.90919318 16.09704159 13.46235586 22.21786604 17.29345703 28.25097656 C18.25407395 29.79922054 19.1354093 31.39615238 20 33 C19.505 33.99 19.505 33.99 19 35 C12.82148004 32.07145297 6.86958727 28.9652997 1.03686523 25.40576172 C-6.73036347 20.66720121 -14.54381625 16.83492098 -23.01977539 13.51220703 C-28.90729944 11.18540112 -28.90729944 11.18540112 -30 9 C-26.05272412 8.82057837 -23.4019487 8.90649311 -20 11 C-20 11.66 -20 12.32 -20 13 C-19.01 12.67 -18.02 12.34 -17 12 C-17 12.66 -17 13.32 -17 14 C-15.700625 14.433125 -15.700625 14.433125 -14.375 14.875 C-13.26125 15.24625 -12.1475 15.6175 -11 16 C-9.906875 16.33 -8.81375 16.66 -7.6875 17 C-5 18 -5 18 -4 20 C-1.97536745 20.65213292 -1.97536745 20.65213292 0 21 C0 21.66 0 22.32 0 23 C1.65 23.33 3.3 23.66 5 24 C5 24.66 5 25.32 5 26 C6.65 25.67 8.3 25.34 10 25 C10.495 23.515 10.495 23.515 11 22 C10.34 21.34 9.68 20.68 9 20 C8.31513275 18.67592331 7.65129797 17.34090759 7 16 C6.46375 15.13375 5.9275 14.2675 5.375 13.375 C4 11 4 11 4 9 C3.01 8.67 2.02 8.34 1 8 C0.67 5.36 0.34 2.72 0 0 Z " fill="#0B2BA8" transform="translate(290,391)"/>
<path d="M0 0 C1.8608725 -0.00143509 1.8608725 -0.00143509 3.75933838 -0.00289917 C6.36804251 -0.00357673 8.97674837 -0.00175213 11.58544922 0.00244141 C14.25446898 0.00603187 16.92328761 0.00698922 19.59228516 0.00244141 C23.45737737 -0.0037321 27.32240511 -0.00298995 31.1875 0 C32.3802655 -0.00202423 33.57303101 -0.00404846 34.80194092 -0.00613403 C35.9136969 -0.00298187 37.02545288 0.00017029 38.17089844 0.00341797 C39.14524841 0.00421356 40.11959839 0.00500916 41.12347412 0.00582886 C43.78835436 0.13094526 46.23130207 0.53767801 48.828125 1.1328125 C48.498125 1.7928125 48.168125 2.4528125 47.828125 3.1328125 C39.29189052 3.17916053 30.75570865 3.21469421 22.21937943 3.23643684 C18.25558273 3.2468724 14.29187214 3.26102742 10.328125 3.28369141 C6.50262353 3.30542795 2.67720488 3.31738284 -1.14835358 3.32256699 C-2.60759027 3.32626129 -4.06682244 3.33347533 -5.52602386 3.34427261 C-7.57050865 3.3587985 -9.61465157 3.36079001 -11.65917969 3.35986328 C-12.82278015 3.3643045 -13.98638062 3.36874573 -15.1852417 3.37332153 C-18.07865831 3.1403191 -19.72997095 2.64399734 -22.171875 1.1328125 C-14.75385941 0.14078837 -7.47853357 -0.01277849 0 0 Z " fill="#1C74CE" transform="translate(395.171875,652.8671875)"/>
<path d="M0 0 C3.90475253 3.49372595 5.42967618 6.06469656 7 11 C7.99 11.33 8.98 11.66 10 12 C12.36005856 15.2677734 13.37603433 18.04821745 14 22 C14.33 22.99 14.66 23.98 15 25 C15.66 25.33 16.32 25.66 17 26 C16.95875 26.680625 16.9175 27.36125 16.875 28.0625 C17.02659174 31.62490588 17.99012285 34.57763854 19 38 C20.63919337 44.26195452 21.28484698 50.49640964 21.6875 56.9375 C21.73592041 57.68370605 21.78434082 58.42991211 21.83422852 59.19873047 C22.00926028 62.45781454 22.04177771 64.87466687 21 68 C20.96079185 69.99961564 20.95556653 72.00049364 21 74 C20.34 74 19.68 74 19 74 C18.98598145 73.01326294 18.98598145 73.01326294 18.97167969 72.0065918 C18.54337934 47.86430889 16.1382629 25.40301207 1.5390625 5.390625 C0 3 0 3 0 0 Z " fill="#0E81D0" transform="translate(733,464)"/>
<path d="M0 0 C1 2 1 2 0.3125 4.32421875 C-7.64832929 20.55388561 -27.81155227 31.20212913 -44.1328125 37.16796875 C-47.65928168 38.19131743 -50.3709477 38.42198283 -54 38 C-53.67 37.34 -53.34 36.68 -53 36 C-48.52459016 34.73770492 -48.52459016 34.73770492 -46 36 C-46 35.34 -46 34.68 -46 34 C-44.576875 33.6596875 -44.576875 33.6596875 -43.125 33.3125 C-38.93112902 32.13617034 -35.25278265 30.17921366 -31.4296875 28.12109375 C-28.94297164 26.97368627 -26.69620917 26.42697974 -24 26 C-24 25.34 -24 24.68 -24 24 C-22.20963542 23.0234375 -20.41927083 22.046875 -18.62890625 21.0703125 C-16.83381685 20.08589976 -16.83381685 20.08589976 -16 18 C-15.01 17.67 -14.02 17.34 -13 17 C-12.34 16.01 -11.68 15.02 -11 14 C-10.34 14 -9.68 14 -9 14 C-8.67 13.01 -8.34 12.02 -8 11 C-7.34 11 -6.68 11 -6 11 C-6 10.01 -6 9.02 -6 8 C-5.34 8 -4.68 8 -4 8 C-3.67 7.01 -3.34 6.02 -3 5 C-2.34 5 -1.68 5 -1 5 C-0.67 3.35 -0.34 1.7 0 0 Z " fill="#1591D4" transform="translate(721,571)"/>
<path d="M0 0 C0.99 0.33 1.98 0.66 3 1 C2.67 1.66 2.34 2.32 2 3 C0.66666667 3.33333333 -0.66666667 3.66666667 -2 4 C-2.33 4.66 -2.66 5.32 -3 6 C-3.7425 6.28875 -4.485 6.5775 -5.25 6.875 C-8.36150446 8.14788819 -10.4148845 9.86727971 -13 12 C-16.81539317 14.51012709 -20.77952341 16.26658997 -25 18 C-25.845625 18.391875 -26.69125 18.78375 -27.5625 19.1875 C-30.48434928 20.16144976 -32.92733369 20 -36 20 C-37.7325 20.556875 -37.7325 20.556875 -39.5 21.125 C-43.48950964 22.12237741 -45.29433292 21.62687823 -49 20 C-49 19.67 -49 19.34 -49 19 C-48.06800781 18.90203125 -47.13601563 18.8040625 -46.17578125 18.703125 C-28.82998944 16.66863375 -16.55089726 10.77089858 -2.21875 1.12890625 C-1.4865625 0.75636719 -0.754375 0.38382813 0 0 Z " fill="#0E72CB" transform="translate(496,633)"/>
<path d="M0 0 C0 0.33 0 0.66 0 1 C-0.92683594 1.04898438 -1.85367188 1.09796875 -2.80859375 1.1484375 C-4.00613281 1.22320313 -5.20367187 1.29796875 -6.4375 1.375 C-8.22994141 1.47941406 -8.22994141 1.47941406 -10.05859375 1.5859375 C-11.02925781 1.72257813 -11.99992187 1.85921875 -13 2 C-13.33 2.66 -13.66 3.32 -14 4 C-32.00744702 3.47176797 -50.00628149 2.8958737 -68 2 C-68 1.67 -68 1.34 -68 1 C-45.34673267 -0.33816769 -22.68239492 -0.09839533 0 0 Z " fill="#1F6ECC" transform="translate(346,652)"/>
<path d="M0 0 C7.29393271 6.99134599 12.68953691 15.90539657 17 25 C17 25.66 17 26.32 17 27 C14.525 26.01 14.525 26.01 12 25 C12.061875 24.236875 12.12375 23.47375 12.1875 22.6875 C11.96301146 19.46983093 11.28301597 19.10037469 9 17 C8.3125 14.8125 8.3125 14.8125 8 13 C6.68 12.67 5.36 12.34 4 12 C4.391875 13.258125 4.78375 14.51625 5.1875 15.8125 C5.85546875 17.95703125 5.85546875 17.95703125 6 20 C4.5090332 21.62768555 4.5090332 21.62768555 3 23 C2.49494737 20.10496617 1.9957978 17.20912047 1.5 14.3125 C1.35691406 13.49587891 1.21382813 12.67925781 1.06640625 11.83789062 C0.38834038 7.85021752 -0.19858392 4.06269596 0 0 Z " fill="#0C50C0" transform="translate(444,477)"/>
<path d="M0 0 C5.2912952 1.23053377 8.15259036 3.46635841 11 8 C15.55842811 16.33280659 14.80964432 24.92962366 12.25 33.8125 C10.70616423 38.4440073 9.04574548 42.19281815 6 46 C5 44 5 44 5.3125 41.9375 C6 40 6 40 8 39 C10.58807735 34.39796105 10.29734224 29.68729783 10.25 24.5625 C10.25773437 23.72912109 10.26546875 22.89574219 10.2734375 22.03710938 C10.25330938 15.67159184 9.03834649 10.64264347 6 5 C5.34 5 4.68 5 4 5 C3.67 4.34 3.34 3.68 3 3 C2.01 3 1.02 3 0 3 C0 2.01 0 1.02 0 0 Z " fill="#1531AA" transform="translate(406,311)"/>
<path d="M0 0 C1 3 1 3 0.3203125 5.015625 C-4.19133947 13.44917051 -10.64844878 17.5921943 -18.6875 22.4375 C-25.78558941 26.86511941 -29.59165194 32.42589321 -33 40 C-34.22578535 36.32264395 -33.46596728 35.44933477 -32 32 C-32 31.01 -32 30.02 -32 29 C-30.06640625 27.46484375 -30.06640625 27.46484375 -27.5625 25.9375 C-24.18407643 24.02575478 -24.18407643 24.02575478 -22 21 C-21.34 21 -20.68 21 -20 21 C-19.67 20.34 -19.34 19.68 -19 19 C-18.01 18.67 -17.02 18.34 -16 18 C-15.67 17.34 -15.34 16.68 -15 16 C-13.68 16 -12.36 16 -11 16 C-10.67 14.68 -10.34 13.36 -10 12 C-9.01 12 -8.02 12 -7 12 C-7 11.01 -7 10.02 -7 9 C-6.34 9 -5.68 9 -5 9 C-4.731875 8.443125 -4.46375 7.88625 -4.1875 7.3125 C-2.89877353 4.80287477 -1.47073522 2.40665764 0 0 Z " fill="#091B99" transform="translate(422,221)"/>
<path d="M0 0 C0.66 0.33 1.32 0.66 2 1 C2.59765625 3.4765625 2.59765625 3.4765625 3.0625 6.625 C3.21847656 7.64851562 3.37445312 8.67203125 3.53515625 9.7265625 C3.68855469 10.80679688 3.84195313 11.88703125 4 13 C4.25523437 14.7015625 4.25523437 14.7015625 4.515625 16.4375 C6.22626835 29.01900595 5.87316048 40.49162255 4 53 C3.67 53 3.34 53 3 53 C2.98018066 52.10917725 2.96036133 51.21835449 2.93994141 50.30053711 C2.86070117 46.91750424 2.77399142 43.53481865 2.68261719 40.15209961 C2.6449063 38.70262741 2.6099664 37.25307981 2.578125 35.8034668 C2.33408847 24.81800972 1.73292639 13.91027545 -0.62646484 3.14038086 C-0.74973145 2.43405518 -0.87299805 1.72772949 -1 1 C-0.67 0.67 -0.34 0.34 0 0 Z " fill="#0D78CE" transform="translate(640,511)"/>
<path d="M0 0 C2.49089604 3.73634406 2.34193393 6.67045238 2.3125 11 C2.31121094 11.78294434 2.30992187 12.56588867 2.30859375 13.37255859 C2.16563845 22.38767691 0.64721778 31.15600928 -1 40 C-1.66 40 -2.32 40 -3 40 C-3.33 40.99 -3.66 41.98 -4 43 C-3.88573491 40.58239124 -3.75900339 38.16652782 -3.625 35.75 C-3.5940625 35.06808594 -3.563125 34.38617187 -3.53125 33.68359375 C-3.22476745 28.42231001 -3.22476745 28.42231001 -1.98413086 26.09130859 C-0.7748367 23.52152101 -0.7861673 21.69791397 -0.83984375 18.8671875 C-0.8562793 17.41119141 -0.8562793 17.41119141 -0.87304688 15.92578125 C-0.89431641 14.91902344 -0.91558594 13.91226563 -0.9375 12.875 C-0.97185096 10.87246652 -1.0020104 8.86985536 -1.02734375 6.8671875 C-1.04531006 5.98144043 -1.06327637 5.09569336 -1.08178711 4.18310547 C-1 2 -1 2 0 0 Z " fill="#155BC6" transform="translate(409,547)"/>
<path d="M0 0 C11.14529805 0 20.49240379 10.69892343 28 18 C33.5209123 23.58344691 38.03120167 29.16809193 41.80859375 36.06640625 C42.85693166 38.14800087 42.85693166 38.14800087 45 39 C45.40729228 41.32156597 45.74438677 43.6568787 46 46 C43.35800403 43.64985243 42.03978986 41.28908038 40.5 38.125 C31.53610203 21.3509731 16.87203705 9.276094 0 1 C0 0.67 0 0.34 0 0 Z " fill="#0C1A99" transform="translate(298,323)"/>
<path d="M0 0 C7.33333333 -0.36666667 7.33333333 -0.36666667 10.5 1.375 C12 3 12 3 12 5 C12.61875 5.28875 13.2375 5.5775 13.875 5.875 C16 7 16 7 18 9 C18.66 9 19.32 9 20 9 C22.58422894 9.13616453 25.16690619 9.28242179 27.75 9.4375 C28.80574219 9.49647461 28.80574219 9.49647461 29.8828125 9.55664062 C33.98205089 9.8042712 37.95552338 10.24325044 42 11 C42 11.33 42 11.66 42 12 C36.39042462 12.78730883 30.85072834 13.13247045 25.1875 13.1875 C23.92292969 13.20167969 22.65835937 13.21585938 21.35546875 13.23046875 C18.19657273 13.0135015 16.54498515 12.81448015 14 11 C12.83203125 9.37890625 12.83203125 9.37890625 11.8125 7.5625 C8.86456851 3.11279209 5.02769586 2.1501265 0 1 C0 0.67 0 0.34 0 0 Z " fill="#1465C9" transform="translate(354,627)"/>
<path d="M0 0 C-2.10966548 1.64085093 -4.17979149 3.10338011 -6.5 4.4375 C-9.0991874 6.06199212 -10.90374191 7.77272578 -13 10 C-13.78375 10.721875 -14.5675 11.44375 -15.375 12.1875 C-20.27777763 17.44047603 -23.99529865 23.48981374 -27 30 C-27.66 30 -28.32 30 -29 30 C-24.93898205 16.71298012 -17.10799286 6.43327746 -4.98046875 -0.28515625 C-3 -1 -3 -1 0 0 Z " fill="#1061C7" transform="translate(536,526)"/>
<path d="M0 0 C1.32 0.33 2.64 0.66 4 1 C3.20890398 2.27118864 2.41709922 3.54193623 1.625 4.8125 C0.96371094 5.87404297 0.96371094 5.87404297 0.2890625 6.95703125 C-0.78188476 8.65432039 -1.88676239 10.33014358 -3 12 C-2.67 12.66 -2.34 13.32 -2 14 C-2.9375 16.125 -2.9375 16.125 -4 18 C-4.66 18 -5.32 18 -6 18 C-6.12375 18.845625 -6.2475 19.69125 -6.375 20.5625 C-8.11111111 30.11111111 -8.11111111 30.11111111 -11 33 C-14.06535079 22.71191642 -4.74402631 8.99587697 0 0 Z " fill="#0F54C3" transform="translate(352,577)"/>
<path d="M0 0 C1.32 0.66 2.64 1.32 4 2 C2.90300781 2.60328125 1.80601562 3.2065625 0.67578125 3.828125 C-0.77878128 4.6351726 -2.23320083 5.44247792 -3.6875 6.25 C-4.7693457 6.84361328 -4.7693457 6.84361328 -5.87304688 7.44921875 C-14.0210128 11.68567268 -14.0210128 11.68567268 -19 19 C-19.23979762 21.36222232 -19.23979762 21.36222232 -19.125 23.75 C-19.10695312 24.54921875 -19.08890625 25.3484375 -19.0703125 26.171875 C-19.04710937 26.77515625 -19.02390625 27.3784375 -19 28 C-19.66 27.67 -20.32 27.34 -21 27 C-21.6328125 24.93359375 -21.6328125 24.93359375 -22.125 22.4375 C-22.29257813 21.61121094 -22.46015625 20.78492188 -22.6328125 19.93359375 C-22.81457031 18.97646484 -22.81457031 18.97646484 -23 18 C-22.01 17.67 -21.02 17.34 -20 17 C-20.33 16.01 -20.66 15.02 -21 14 C-20.236875 13.566875 -19.47375 13.13375 -18.6875 12.6875 C-16.04961333 11.1703101 -16.04961333 11.1703101 -14.375 9.375 C-13 8 -13 8 -10 7 C-9.67 6.34 -9.34 5.68 -9 5 C-6.67328135 3.98470459 -4.3396553 2.98511802 -2 2 C-1.34 1.34 -0.68 0.68 0 0 Z " fill="#0C209E" transform="translate(189,400)"/>
<path d="M0 0 C0.66 0.99 1.32 1.98 2 3 C0.86643285 7.19419847 -1.61316351 10.41974526 -4 14 C-4.268125 14.78761719 -4.53625 15.57523438 -4.8125 16.38671875 C-6.31539231 19.69407058 -8.27743228 21.42629603 -11 23.8125 C-12.3303125 24.99779297 -12.3303125 24.99779297 -13.6875 26.20703125 C-16 28 -16 28 -18 28 C-18 28.66 -18 29.32 -18 30 C-18.66 30 -19.32 30 -20 30 C-20 29.01 -20 28.02 -20 27 C-18.5459375 26.1028125 -18.5459375 26.1028125 -17.0625 25.1875 C-9.0566795 19.85028634 -3.93460174 8.55348205 0 0 Z " fill="#0F65C8" transform="translate(434,597)"/>
<path d="M0 0 C0 0.33 0 0.66 0 1 C-3.63 1.33 -7.26 1.66 -11 2 C-12.25327816 10.67426378 -12.11200681 19.3222128 -12.0625 28.0625 C-12.05747503 29.61132668 -12.05291388 31.16015493 -12.04882812 32.70898438 C-12.03790138 36.47269576 -12.02069175 40.23633015 -12 44 C-12.33 44 -12.66 44 -13 44 C-14.366406 38.08216399 -14.3655552 32.12859749 -14.55761719 26.08007812 C-14.62479975 24.00618171 -14.70263424 21.93286574 -14.78125 19.859375 C-14.82507813 18.54453125 -14.86890625 17.2296875 -14.9140625 15.875 C-14.9548291 14.67617188 -14.9955957 13.47734375 -15.03759766 12.2421875 C-14.98056883 7.32437739 -14.57569589 3.57569589 -11 0 C-7.12693551 -1.36080644 -3.96441194 -0.82976064 0 0 Z " fill="#071394" transform="translate(297,322)"/>
<path d="M0 0 C-0.33 0.66 -0.66 1.32 -1 2 C-6.86718308 3.38202109 -13.19558903 3.13709052 -19.19140625 3.09765625 C-20.02212143 3.0962413 -20.85283661 3.09482635 -21.70872498 3.09336853 C-24.32668875 3.0878317 -26.94456267 3.07529162 -29.5625 3.0625 C-31.35221229 3.05747681 -33.14192595 3.05291535 -34.93164062 3.04882812 C-39.28779433 3.03788308 -43.643882 3.02066319 -48 3 C-48 2.67 -48 2.34 -48 2 C-43.09302219 1.71072066 -38.18580261 1.42609898 -33.27832031 1.14550781 C-31.61418643 1.04973495 -29.95012112 0.95276181 -28.28613281 0.85449219 C-18.8484409 0.29799772 -9.45940866 -0.16916975 0 0 Z " fill="#169FD7" transform="translate(753,631)"/>
<path d="M0 0 C1.15693359 0.00644531 2.31386719 0.01289063 3.50585938 0.01953125 C4.70404297 0.03628906 5.90222656 0.05304688 7.13671875 0.0703125 C8.96299805 0.08384766 8.96299805 0.08384766 10.82617188 0.09765625 C13.82572149 0.12118213 16.82486919 0.15405597 19.82421875 0.1953125 C19.82421875 0.5253125 19.82421875 0.8553125 19.82421875 1.1953125 C18.86721069 1.25477051 18.86721069 1.25477051 17.89086914 1.31542969 C6.35340151 2.0654635 -4.90417074 2.87232548 -16.08374023 5.96191406 C-20.91276069 7.28298602 -20.91276069 7.28298602 -24.17578125 6.1953125 C-23.51578125 6.1953125 -22.85578125 6.1953125 -22.17578125 6.1953125 C-22.17578125 5.5353125 -22.17578125 4.8753125 -22.17578125 4.1953125 C-21.43972656 4.07414062 -20.70367187 3.95296875 -19.9453125 3.828125 C-18.96949219 3.66054688 -17.99367187 3.49296875 -16.98828125 3.3203125 C-16.02535156 3.15789062 -15.06242188 2.99546875 -14.0703125 2.828125 C-11.21710322 2.30757659 -11.21710322 2.30757659 -8.88085938 1.16796875 C-5.75158227 0.04278464 -3.31973286 -0.03270673 0 0 Z " fill="#061599" transform="translate(218.17578125,393.8046875)"/>
<path d="M0 0 C0.92683594 0.00451172 1.85367188 0.00902344 2.80859375 0.01367188 C5.08079709 0.02538426 7.35286388 0.04178628 9.625 0.0625 C9.295 1.0525 8.965 2.0425 8.625 3.0625 C8.00979492 3.05726318 7.39458984 3.05202637 6.76074219 3.04663086 C3.96550524 3.02580629 1.17028464 3.01282241 -1.625 3 C-2.59308594 2.99162109 -3.56117188 2.98324219 -4.55859375 2.97460938 C-5.49316406 2.97138672 -6.42773438 2.96816406 -7.390625 2.96484375 C-8.67888184 2.95698853 -8.67888184 2.95698853 -9.99316406 2.94897461 C-12.26170744 3.05710014 -14.20131715 3.42667577 -16.375 4.0625 C-16.375 3.0725 -16.375 2.0825 -16.375 1.0625 C-10.89230931 -0.09414737 -5.57160726 -0.05166255 0 0 Z " fill="#1A84D1" transform="translate(516.375,630.9375)"/>
<path d="M0 0 C0.99 0.845625 1.98 1.69125 3 2.5625 C3.639375 3.10132813 4.27875 3.64015625 4.9375 4.1953125 C6.33242359 5.41587064 7.68679392 6.68411113 9 7.9921875 C13.18757484 12.14599554 13.18757484 12.14599554 18.875 13.1875 C22.07309223 12.3082636 22.07309223 12.3082636 23.4375 9.9375 C23.623125 9.298125 23.80875 8.65875 24 8 C24.66 8 25.32 8 26 8 C26.33 7.34 26.66 6.68 27 6 C26.47462592 9.78269337 25.83619109 12.35288832 23 15 C19.17652138 16.08211659 16.80271612 16.25084879 13 15.0625 C9.59579262 12.72210743 7.22791646 10.11112619 4.61328125 6.9375 C3.05300581 4.98786748 3.05300581 4.98786748 1.29296875 3.375 C0 2 0 2 0 0 Z " fill="#0761C7" transform="translate(477,585)"/>
<path d="M0 0 C8.88778821 6.99676944 17.49244494 16.49543691 22 27 C21.67 27.99 21.34 28.98 21 30 C17 23.25 17 23.25 17 21 C16.34 21 15.68 21 15 21 C15 20.01 15 19.02 15 18 C14.34 18 13.68 18 13 18 C12.566875 17.2575 12.13375 16.515 11.6875 15.75 C9.82408081 12.71331688 7.76648419 11.19900026 5 9 C4.30062468 7.68352881 3.63270867 6.34977849 3 5 C1.70529025 3.62913085 0.37849103 2.28659163 -1 1 C-0.67 0.67 -0.34 0.34 0 0 Z " fill="#0D73CC" transform="translate(707,462)"/>
<path d="M0 0 C0.33 0 0.66 0 1 0 C2.85400452 9.94420605 0.23577281 18.57528181 -3 28 C-3.66 28 -4.32 28 -5 28 C-4.01 20.41 -3.02 12.82 -2 5 C-1.67 5 -1.34 5 -1 5 C-0.67 3.35 -0.34 1.7 0 0 Z " fill="#145FC6" transform="translate(451,537)"/>
<path d="M0 0 C2.27710801 3.41566201 4.01498327 7.00847043 5.8125 10.6875 C8.5991488 16.33693554 11.50049353 21.7507403 15 27 C14.34 27.66 13.68 28.32 13 29 C10.96022723 25.75490696 9.33488128 22.59391114 8 19 C7.34 19 6.68 19 6 19 C-0.46646341 6.375 -0.46646341 6.375 0 0 Z " fill="#105FC6" transform="translate(662,406)"/>
<path d="M0 0 C5.45320087 2.48206228 10.7148962 6.37137859 13.375 11.8125 C13.58125 12.534375 13.7875 13.25625 14 14 C14.66 14.66 15.32 15.32 16 16 C17.45070019 20.83566729 18.25407962 24.91840768 18 30 C16.33901347 26.82902572 15.04590123 23.58478582 13.75 20.25 C11.49217018 14.79136436 8.80632329 10.4838887 5 6 C4.26136719 5.09894531 4.26136719 5.09894531 3.5078125 4.1796875 C2.35177369 2.77545957 1.17798716 1.38586725 0 0 Z " fill="#0A1D9E" transform="translate(478,234)"/>
<path d="M0 0 C2.0625 0.6875 2.0625 0.6875 5.0625 2.6875 C4.7325 3.6775 4.4025 4.6675 4.0625 5.6875 C-2.2075 5.6875 -8.4775 5.6875 -14.9375 5.6875 C-14.9375 5.3575 -14.9375 5.0275 -14.9375 4.6875 C-9.3125 3.5625 -9.3125 3.5625 -5.9375 4.6875 C-5.9375 4.0275 -5.9375 3.3675 -5.9375 2.6875 C-5.2775 2.6875 -4.6175 2.6875 -3.9375 2.6875 C-3.9375 2.0275 -3.9375 1.3675 -3.9375 0.6875 C-1.9375 -0.3125 -1.9375 -0.3125 0 0 Z " fill="#0C58C2" transform="translate(235.9375,616.3125)"/>
<path d="M0 0 C0 0.33 0 0.66 0 1 C-7.92 0.67 -15.84 0.34 -24 0 C-24 -0.33 -24 -0.66 -24 -1 C-25.65 -1.33 -27.3 -1.66 -29 -2 C-29 -2.33 -29 -2.66 -29 -3 C-19.10945051 -5.07011501 -9.32930047 -3.63684595 0 0 Z " fill="#1937A9" transform="translate(249,396)"/>
<path d="M0 0 C5.69297345 -0.45543788 8.54261819 0.41235123 13 4 C13 4.33 13 4.66 13 5 C8.9247366 5.76776475 5.08994553 6.11902034 0.9453125 6.09765625 C-0.16328125 6.09443359 -1.271875 6.09121094 -2.4140625 6.08789062 C-3.55617187 6.07951172 -4.69828125 6.07113281 -5.875 6.0625 C-7.0403125 6.05798828 -8.205625 6.05347656 -9.40625 6.04882812 C-12.27088645 6.03708781 -15.13541633 6.0206657 -18 6 C-18 5.67 -18 5.34 -18 5 C-10.41 4.67 -2.82 4.34 5 4 C5 3.34 5 2.68 5 2 C2.525 1.505 2.525 1.505 0 1 C0 0.67 0 0.34 0 0 Z " fill="#0530B4" transform="translate(235,617)"/>
<path d="M0 0 C3.465 1.98 3.465 1.98 7 4 C7 4.66 7 5.32 7 6 C8.32 6 9.64 6 11 6 C12.38938077 7.96147874 13.7260411 9.96166576 15 12 C15.66 12 16.32 12 17 12 C17 12.99 17 13.98 17 15 C17.99 15.33 18.98 15.66 20 16 C19.34 16.66 18.68 17.32 18 18 C17.28714844 17.33613281 16.57429687 16.67226563 15.83984375 15.98828125 C9.60958835 10.17900513 9.60958835 10.17900513 2.8125 5.0625 C1.884375 4.381875 0.95625 3.70125 0 3 C0 2.01 0 1.02 0 0 Z " fill="#0C58C4" transform="translate(586,436)"/>
<path d="M0 0 C0.845625 0.25265625 1.69125 0.5053125 2.5625 0.765625 C5.13230942 1.80343265 6.94246502 2.8973081 9 4.75 C10.25 7.9375 10.25 7.9375 11 10.75 C9.88625 9.6053125 9.88625 9.6053125 8.75 8.4375 C7.8425 7.550625 6.935 6.66375 6 5.75 C5.4225 5.151875 4.845 4.55375 4.25 3.9375 C0.6166452 2.01989608 -2.98466381 2.20907388 -7 2.75 C-10.45346148 4.09746524 -10.45346148 4.09746524 -13 5.75 C-12.67 3.77 -12.34 1.79 -12 -0.25 C-11.01 -0.25 -10.02 -0.25 -9 -0.25 C-8.071875 -0.53617188 -8.071875 -0.53617188 -7.125 -0.828125 C-4.384038 -1.37228657 -2.65666752 -0.8261588 0 0 Z " fill="#081B9F" transform="translate(92,531.25)"/>
<path d="M0 0 C1.485 0.99 1.485 0.99 3 2 C2.835 3.0725 2.67 4.145 2.5 5.25 C1.78839274 10.82258642 1.91588954 16.39263574 2 22 C1.34 22.33 0.68 22.66 0 23 C-2.18768843 15.72506783 -1.34350823 7.38929527 0 0 Z " fill="#1C72CD" transform="translate(503,567)"/>
<path d="M0 0 C0.99 0 1.98 0 3 0 C2.79503906 0.73605469 2.59007812 1.47210937 2.37890625 2.23046875 C2.10949219 3.20628906 1.84007812 4.18210937 1.5625 5.1875 C1.29566406 6.15042969 1.02882813 7.11335937 0.75390625 8.10546875 C0.07119982 10.72663697 -0.49892195 13.338935 -1 16 C-1.99 16 -2.98 16 -4 16 C-4.66 18.64 -5.32 21.28 -6 24 C-6.66 23.01 -7.32 22.02 -8 21 C-7.19568118 18.61105305 -6.33536864 16.50642427 -5.25 14.25 C-3.05702632 9.51563625 -1.3153519 5.02928668 0 0 Z " fill="#0E4CBF" transform="translate(365,547)"/>
<path d="M0 0 C9.08845475 3.97011728 13.18199089 15.45943969 17 24 C17.69921875 26.421875 17.69921875 26.421875 18 28 C17.34 28 16.68 28 16 28 C15.764021 27.46632813 15.52804199 26.93265625 15.28491211 26.3828125 C9.27978577 12.63243632 9.27978577 12.63243632 0 1 C0 0.67 0 0.34 0 0 Z " fill="#0D2AAC" transform="translate(107,588)"/>
<path d="M0 0 C1.9375 0.6875 1.9375 0.6875 4 2 C4.75 4.625 4.75 4.625 5 7 C5.66 7 6.32 7 7 7 C7.83790789 8.78953185 8.67019396 10.58169695 9.5 12.375 C9.9640625 13.37273437 10.428125 14.37046875 10.90625 15.3984375 C12 18 12 18 12 20 C11.01 20 10.02 20 9 20 C7.87327825 17.60496313 6.74857442 15.2090129 5.625 12.8125 C5.14933594 11.80219727 5.14933594 11.80219727 4.6640625 10.77148438 C2.99988576 7.21777362 1.40908239 3.66503752 0 0 Z " fill="#0F6BCA" transform="translate(626,480)"/>
<path d="M0 0 C4.91462617 2.53688322 8.37549625 6.14693084 12.1875 10.0625 C12.81591797 10.69994141 13.44433594 11.33738281 14.09179688 11.99414062 C15.25255958 13.17228374 16.41124977 14.35247516 17.56713867 15.53540039 C18.70406706 16.69751206 19.85041101 17.85041101 21 19 C20.01 19.33 19.02 19.66 18 20 C16.33333333 18.33333333 14.66666667 16.66666667 13 15 C11.8553125 13.9171875 11.8553125 13.9171875 10.6875 12.8125 C9 11 9 11 9 9 C8.34 9 7.68 9 7 9 C7 8.34 7 7.68 7 7 C6.34 7 5.68 7 5 7 C4.67 6.34 4.34 5.68 4 5 C3.01 4.67 2.02 4.34 1 4 C0.3125 1.9375 0.3125 1.9375 0 0 Z " fill="#0963C8" transform="translate(677,435)"/>
<path d="M0 0 C4.14067832 2.97748423 6.86742557 6.33580403 9.625 10.5625 C12.38502381 14.84966135 12.38502381 14.84966135 15.73046875 18.671875 C17.9352269 20.97839122 17.71175328 23.94458472 18 27 C15.32805834 24.62494075 13.95900888 22.18654418 12.375 19 C9.45800332 13.46801892 5.85132468 8.92305826 1.7578125 4.21484375 C0 2 0 2 0 0 Z " fill="#0F21A0" transform="translate(326,342)"/>
<path d="M0 0 C1.65 0 3.3 0 5 0 C5 0.66 5 1.32 5 2 C5.66 2 6.32 2 7 2 C7.66 3.32 8.32 4.64 9 6 C6 6 6 6 1 2 C0.67 6.62 0.34 11.24 0 16 C-2 14 -2 14 -2.1953125 11.8359375 C-2.17210937 11.02382812 -2.14890625 10.21171875 -2.125 9.375 C-2.10695313 8.55773437 -2.08890625 7.74046875 -2.0703125 6.8984375 C-2.04710937 6.27195313 -2.02390625 5.64546875 -2 5 C-1.34 5 -0.68 5 0 5 C0 3.35 0 1.7 0 0 Z " fill="#0E1E97" transform="translate(430,178)"/>
<path d="M0 0 C-0.93441535 1.27310312 -1.87267111 2.543388 -2.8125 3.8125 C-3.33457031 4.52019531 -3.85664062 5.22789062 -4.39453125 5.95703125 C-5.84252498 7.79961207 -7.23101505 9.46364869 -9 11 C-9.66 11 -10.32 11 -11 11 C-10.855625 10.443125 -10.71125 9.88625 -10.5625 9.3125 C-9.95164184 6.9632478 -9.95164184 6.9632478 -9.625 4.375 C-8.29148516 -0.69235639 -4.43061888 -0.19691639 0 0 Z " fill="#1168CA" transform="translate(545,523)"/>
<path d="M0 0 C-0.33 0.66 -0.66 1.32 -1 2 C-2.88866703 2.26980958 -4.78039379 2.52663238 -6.6796875 2.70703125 C-9.0751219 3.00948509 -11.29357195 3.56710304 -13.625 4.1875 C-17.63642368 5.13995242 -20.18916244 4.75884811 -24 3 C-24 2.67 -24 2.34 -24 2 C-22.96359375 1.86722656 -21.9271875 1.73445312 -20.859375 1.59765625 C-19.48956735 1.41939361 -18.11977656 1.24100138 -16.75 1.0625 C-16.06808594 0.97548828 -15.38617188 0.88847656 -14.68359375 0.79882812 C-11.98030934 0.44451415 -9.33064133 0.0848944 -6.6875 -0.59375 C-4.28956981 -1.17102949 -2.35875985 -0.58968996 0 0 Z " fill="#1E7DD0" transform="translate(471,650)"/>
<path d="M0 0 C8.44176667 2.713425 16.71110853 5.85734053 25 9 C25 9.66 25 10.32 25 11 C22.69 10.67 20.38 10.34 18 10 C18 9.34 18 8.68 18 8 C17.14148438 7.89816406 16.28296875 7.79632813 15.3984375 7.69140625 C11.71504245 6.94202588 8.94976792 5.67376769 5.625 3.9375 C4.56539062 3.38964844 3.50578125 2.84179688 2.4140625 2.27734375 C1.61742187 1.85582031 0.82078125 1.43429687 0 1 C0 0.67 0 0.34 0 0 Z " fill="#09179C" transform="translate(188,444)"/>
<path d="M0 0 C3.94727588 -0.17942163 6.5980513 -0.09350689 10 2 C10 2.66 10 3.32 10 4 C10.99 3.67 11.98 3.34 13 3 C13 3.66 13 4.32 13 5 C13.886875 5.268125 14.77375 5.53625 15.6875 5.8125 C18.76877548 6.91710819 21.26221405 8.22849144 24 10 C22 11 22 11 19.86108398 10.3190918 C18.99813721 9.94953369 18.13519043 9.57997559 17.24609375 9.19921875 C15.84133789 8.59883789 15.84133789 8.59883789 14.40820312 7.98632812 C13.42787109 7.55771484 12.44753906 7.12910156 11.4375 6.6875 C10.45330078 6.27048828 9.46910156 5.85347656 8.45507812 5.42382812 C1.1290728 2.2581456 1.1290728 2.2581456 0 0 Z " fill="#0A1FA2" transform="translate(260,400)"/>
<path d="M0 0 C0.33 0.99 0.66 1.98 1 3 C2.65 2.67 4.3 2.34 6 2 C6.33 2.66 6.66 3.32 7 4 C7.66 4 8.32 4 9 4 C8.25 6.4375 8.25 6.4375 7 9 C4.875 9.8125 4.875 9.8125 3 10 C0.96564469 6.27034861 0 4.33094958 0 0 Z " fill="#0F30AB" transform="translate(106,555)"/>
<path d="M0 0 C-1.875 5.75 -1.875 5.75 -3 8 C-3.23172827 10.54615009 -3.41894529 13.07396225 -3.5625 15.625 C-3.60568359 16.33140625 -3.64886719 17.0378125 -3.69335938 17.765625 C-3.79944751 19.51018537 -3.90022889 21.25506697 -4 23 C-4.33 23 -4.66 23 -5 23 C-5 21.35 -5 19.7 -5 18 C-5.66 17.67 -6.32 17.34 -7 17 C-6.74481529 14.72735496 -6.47030939 12.45687295 -6.1875 10.1875 C-6.03667969 8.92292969 -5.88585937 7.65835938 -5.73046875 6.35546875 C-4.92648201 2.66228901 -4.13523077 0 0 0 Z " fill="#061B9F" transform="translate(79,537)"/>
<path d="M0 0 C2 3 2 3 1.5390625 6.13671875 C1.23742187 7.30847656 0.93578125 8.48023438 0.625 9.6875 C0.32851563 10.86699219 0.03203125 12.04648437 -0.2734375 13.26171875 C-0.51320313 14.16535156 -0.75296875 15.06898438 -1 16 C-1.66 16 -2.32 16 -3 16 C-3.33 16.66 -3.66 17.32 -4 18 C-4.33 17.34 -4.66 16.68 -5 16 C-4.34206835 14.32986582 -3.67276716 12.6642135 -3 11 C-2.43598614 8.67142848 -1.94228311 6.33602023 -1.46484375 3.98828125 C-1 2 -1 2 0 0 Z " fill="#106ECB" transform="translate(515,565)"/>
<path d="M0 0 C0.66 0 1.32 0 2 0 C2.43547531 5.31279873 2.43547531 5.31279873 2 8 C-0.60946239 10.18630633 -2.78376542 10.92792181 -6 12 C-8.35188447 11.40206327 -10.68925595 10.74118205 -13 10 C-9.57412469 7.89176904 -6.9627416 7.91385344 -3 8 C-2.34 7.67 -1.68 7.34 -1 7 C-0.59270772 4.67843403 -0.25561323 2.3431213 0 0 Z " fill="#0854C3" transform="translate(748,330)"/>
<path d="M0 0 C0.928125 0.845625 1.85625 1.69125 2.8125 2.5625 C7.50423392 6.6074311 12.72595206 9.77644086 18 13 C14.54199653 14.16527907 14.13328113 14.06300562 10.5625 12.375 C5.48434071 9.20387478 1.83005033 5.82288742 0 0 Z " fill="#0B1E9F" transform="translate(381,295)"/>
<path d="M0 0 C0.99 0.33 1.98 0.66 3 1 C2.04416032 2.93873142 1.08523808 4.8759433 0.125 6.8125 C-0.40867187 7.89144531 -0.94234375 8.97039063 -1.4921875 10.08203125 C-3 13 -3 13 -5 16 C-6.25460729 13.49078542 -5.86211613 12.61169775 -5.1875 9.9375 C-4.93033203 8.86822266 -4.93033203 8.86822266 -4.66796875 7.77734375 C-4 6 -4 6 -2 5 C-1.27840576 3.35636866 -0.60648579 1.68949614 0 0 Z " fill="#146ACA" transform="translate(523,548)"/>
<path d="M0 0 C6.39075249 -0.36174071 6.39075249 -0.36174071 9 1.1875 C10 3 10 3 10 5.375 C8.7038277 8.77745228 6.68276017 10.59239472 4 13 C4.309375 12.236875 4.61875 11.47375 4.9375 10.6875 C6.15964645 7.59618838 7 5.34761352 7 2 C5.02 2.33 3.04 2.66 1 3 C0.67 2.01 0.34 1.02 0 0 Z " fill="#0D2BAB" transform="translate(282,453)"/>
<path d="M0 0 C0.33 0.66 0.66 1.32 1 2 C0.67 2.99 0.34 3.98 0 5 C1.15628906 4.96519531 1.15628906 4.96519531 2.3359375 4.9296875 C3.33882812 4.91164063 4.34171875 4.89359375 5.375 4.875 C6.37273438 4.85179687 7.37046875 4.82859375 8.3984375 4.8046875 C11 5 11 5 13 7 C7.72 7 2.44 7 -3 7 C-1 1 -1 1 0 0 Z " fill="#0A81CE" transform="translate(630,607)"/>
<path d="M0 0 C3.12572333 2.69159509 4.8036782 5.9634132 6.75 9.5625 C7.38421875 10.71878906 8.0184375 11.87507813 8.671875 13.06640625 C9.11015625 14.03449219 9.5484375 15.00257813 10 16 C9.67 16.66 9.34 17.32 9 18 C8.16094435 16.87926138 7.32892169 15.75325453 6.5 14.625 C5.80390625 13.68527344 5.80390625 13.68527344 5.09375 12.7265625 C4 11 4 11 4 9 C3.01 8.67 2.02 8.34 1 8 C0.67 5.36 0.34 2.72 0 0 Z " fill="#0C25A5" transform="translate(290,391)"/>
<path d="M0 0 C0.66 0 1.32 0 2 0 C2.12375 1.03125 2.2475 2.0625 2.375 3.125 C2.87728298 6.94769636 2.87728298 6.94769636 4.125 10.25 C5 13 5 13 4 16 C3.34 16.33 2.68 16.66 2 17 C-0.29612756 5.47835991 -0.29612756 5.47835991 0 0 Z " fill="#1C8AD3" transform="translate(749,496)"/>
<path d="M0 0 C0.99 0 1.98 0 3 0 C1.44633255 4.97173583 -1.49754 9.18561608 -5 13 C-5.99 13.33 -6.98 13.66 -8 14 C-7.67 12.68 -7.34 11.36 -7 10 C-6.34 10 -5.68 10 -5 10 C-5 9.01 -5 8.02 -5 7 C-4.01 6.34 -3.02 5.68 -2 5 C-0.79549696 2.44816596 -0.79549696 2.44816596 0 0 Z " fill="#1129A2" transform="translate(384,263)"/>
<path d="M0 0 C9.41002278 -0.18451025 9.41002278 -0.18451025 14 1 C13.67 1.66 13.34 2.32 13 3 C7.06 3 1.12 3 -5 3 C-5 2.67 -5 2.34 -5 2 C-3.35 1.67 -1.7 1.34 0 1 C0 0.67 0 0.34 0 0 Z " fill="#117BCF" transform="translate(430,653)"/>
<path d="M0 0 C0.33 0 0.66 0 1 0 C1.08075665 2.29109597 1.13907731 4.58299267 1.1875 6.875 C1.22230469 8.15117187 1.25710938 9.42734375 1.29296875 10.7421875 C1.19628906 11.81726563 1.09960938 12.89234375 1 14 C0.01 14.66 -0.98 15.32 -2 16 C-2.2358396 10.22192976 -1.86783046 5.48675196 0 0 Z " fill="#104CBF" transform="translate(424,469)"/>
<path d="M0 0 C2.60608273 2.5162178 4.89381685 5.05134359 7 8 C6.67 8.66 6.34 9.32 6 10 C5.34 9.34 4.68 8.68 4 8 C3.67 9.98 3.34 11.96 3 14 C2.67 14 2.34 14 2 14 C-0.29612756 4.58997722 -0.29612756 4.58997722 0 0 Z " fill="#103EB9" transform="translate(444,477)"/>
<path d="M0 0 C1.32 0 2.64 0 4 0 C4 0.66 4 1.32 4 2 C5.32 2 6.64 2 8 2 C8 2.66 8 3.32 8 4 C9.32 4.33 10.64 4.66 12 5 C11.01 6.485 11.01 6.485 10 8 C9.319375 7.38125 8.63875 6.7625 7.9375 6.125 C4.54118766 3.6680932 2.03981179 2.95054395 -2 2 C-1.34 1.34 -0.68 0.68 0 0 Z " fill="#1658C5" transform="translate(735,322)"/>
<path d="M0 0 C0.33 0.99 0.66 1.98 1 3 C-0.5625 6.125 -0.5625 6.125 -3 9 C-6.25 9.875 -6.25 9.875 -9 10 C-9 9.34 -9 8.68 -9 8 C-8.21625 7.7525 -7.4325 7.505 -6.625 7.25 C-3.67682892 5.84610901 -3.0975223 4.99324263 -2 2 C-1.34 2 -0.68 2 0 2 C0 1.34 0 0.68 0 0 Z " fill="#1171CD" transform="translate(503,591)"/>
<path d="M0 0 C0.33 0 0.66 0 1 0 C1.38971999 2.10149011 1.76131477 4.2063482 2.125 6.3125 C2.33382812 7.48425781 2.54265625 8.65601563 2.7578125 9.86328125 C3 13 3 13 1 16 C-1.0662997 10.28728907 -1.0006709 5.96345767 0 0 Z " fill="#1965C8" transform="translate(659,392)"/>
<path d="M0 0 C-3.16240582 2.10827055 -4.50657469 2.33817465 -8.1875 2.625 C-9.53908203 2.73714844 -9.53908203 2.73714844 -10.91796875 2.8515625 C-11.94857422 2.92503906 -11.94857422 2.92503906 -13 3 C-13 2.34 -13 1.68 -13 1 C-8.20862412 -0.6290678 -4.94367454 -1.20577428 0 0 Z " fill="#0F56C3" transform="translate(722,338)"/>
<path d="M0 0 C0.33 0.66 0.66 1.32 1 2 C1.66 2.33 2.32 2.66 3 3 C1.9275 3.28875 0.855 3.5775 -0.25 3.875 C-3.09400364 4.72820109 -5.43508983 5.5636503 -8 7 C-7.67 5.02 -7.34 3.04 -7 1 C-6.01 1 -5.02 1 -4 1 C-2.66018514 0.6937566 -1.32488113 0.36548445 0 0 Z " fill="#0A26A4" transform="translate(87,530)"/>
<path d="M0 0 C1.65 0 3.3 0 5 0 C5.33 0.66 5.66 1.32 6 2 C-0.435 3.98 -0.435 3.98 -7 6 C-7.66 5.34 -8.32 4.68 -9 4 C-5.62902617 2.50178941 -3.79557881 2 0 2 C0 1.34 0 0.68 0 0 Z " fill="#0D4CC1" transform="translate(706,322)"/>
<path d="M0 0 C0.66 0.66 1.32 1.32 2 2 C0.02 4.64 -1.96 7.28 -4 10 C-4.99 9.67 -5.98 9.34 -7 9 C-5.76465298 5.29395893 -3.80264776 3.66251537 -1 1 C-0.67 0.67 -0.34 0.34 0 0 Z " fill="#0C62C7" transform="translate(532,535)"/>
<path d="M0 0 C2.39489543 0.74324341 3.70777616 1.47057354 4.93359375 3.69140625 C5.67219923 5.44073501 6.34049685 7.21934149 7 9 C3.64564078 7.61198929 1.88709697 6.11371 0 3 C0 2.01 0 1.02 0 0 Z " fill="#0D65C9" transform="translate(616,464)"/>
<path d="M0 0 C0.33 0 0.66 0 1 0 C1.12375 1.0725 1.2475 2.145 1.375 3.25 C1.7855624 6.84683029 1.7855624 6.84683029 3.125 9.25 C3.41375 9.8275 3.7025 10.405 4 11 C3.67 11.99 3.34 12.98 3 14 C2.01 13.67 1.02 13.34 0 13 C0 8.71 0 4.42 0 0 Z " fill="#1256C2" transform="translate(401,513)"/>
<path d="M0 0 C1.03274898 2.68514734 1.07566569 3.7921588 0.07421875 6.54296875 C-0.38339844 7.41566406 -0.84101563 8.28835938 -1.3125 9.1875 C-1.76238281 10.06792969 -2.21226562 10.94835937 -2.67578125 11.85546875 C-4 14 -4 14 -6 15 C-5.625 12.0625 -5.625 12.0625 -5 9 C-4.34 8.67 -3.68 8.34 -3 8 C-2.09656316 6.11736119 -2.09656316 6.11736119 -1.375 3.9375 C-0.98441406 2.83728516 -0.98441406 2.83728516 -0.5859375 1.71484375 C-0.39257812 1.14894531 -0.19921875 0.58304687 0 0 Z " fill="#0E26A7" transform="translate(417,342)"/>
<path d="M0 0 C0 0.99 0 1.98 0 3 C-5.625 5 -5.625 5 -9 5 C-9 4.01 -9 3.02 -9 2 C-6.03 1.34 -3.06 0.68 0 0 Z " fill="#0D61C7" transform="translate(412,625)"/>
<path d="M0 0 C0.66 0 1.32 0 2 0 C2 1.98 2 3.96 2 6 C3.32 6.33 4.64 6.66 6 7 C6 7.66 6 8.32 6 9 C3.28071483 8.62492618 2.15781339 8.15781339 0.1875 6.1875 C-1 4 -1 4 -0.6875 1.75 C-0.460625 1.1725 -0.23375 0.595 0 0 Z " fill="#1965C9" transform="translate(394,619)"/>
<path d="M0 0 C0.99 0 1.98 0 3 0 C2.01 2.97 1.02 5.94 0 9 C-0.66 8.67 -1.32 8.34 -2 8 C-1.34 5.36 -0.68 2.72 0 0 Z " fill="#1369C9" transform="translate(506,557)"/>
<path d="M0 0 C1.5625 1.1875 1.5625 1.1875 3 3 C2.6875 5.6875 2.6875 5.6875 2 8 C1.01 8 0.02 8 -1 8 C-0.67 5.36 -0.34 2.72 0 0 Z " fill="#1755C3" transform="translate(367,537)"/>
<path d="M0 0 C0.33 0.66 0.66 1.32 1 2 C1.66 2 2.32 2 3 2 C3 5.63 3 9.26 3 13 C1.26315467 9.52630934 0.69915888 7.92380063 0.375 4.25 C0.30023438 3.45078125 0.22546875 2.6515625 0.1484375 1.828125 C0.09945313 1.22484375 0.05046875 0.6215625 0 0 Z " fill="#051DA3" transform="translate(347,378)"/>
<path d="M0 0 C0.66 0.66 1.32 1.32 2 2 C-0.97 3.32 -3.94 4.64 -7 6 C-6.67 4.35 -6.34 2.7 -6 1 C-3.125 0.375 -3.125 0.375 0 0 Z " fill="#1B77CD" transform="translate(492,615)"/>
<path d="M0 0 C1.39195915 4.17587745 -0.17676781 6.13474776 -2 10 C-2.66 9.67 -3.32 9.34 -4 9 C-3.38461538 3.46153846 -3.38461538 3.46153846 -1.4375 1.125 C-0.963125 0.75375 -0.48875 0.3825 0 0 Z " fill="#1663C8" transform="translate(680,369)"/>
<path d="M0 0 C0.66 0.33 1.32 0.66 2 1 C2.17835515 5.54805635 1.99785435 8.8794254 0 13 C-0.33 13 -0.66 13 -1 13 C-0.67 8.71 -0.34 4.42 0 0 Z " fill="#0A219B" transform="translate(424,207)"/>
<path d="M0 0 C0.33 0 0.66 0 1 0 C1.33 2.97 1.66 5.94 2 9 C1.01 9.495 1.01 9.495 0 10 C-1.36952673 7.26094655 -1.12621361 5.02912668 -1 2 C-0.67 1.34 -0.34 0.68 0 0 Z " fill="#165CC5" transform="translate(463,511)"/>
<path d="M0 0 C3.60654039 2.40436026 3.85452932 3.94679607 5 8 C3.68 7.67 2.36 7.34 1 7 C0.67 4.69 0.34 2.38 0 0 Z " fill="#0D279F" transform="translate(457,209)"/>
<path d="M0 0 C0 0.66 0 1.32 0 2 C0.66 2 1.32 2 2 2 C2.66 3.32 3.32 4.64 4 6 C1 6 1 6 -1.6875 3.5 C-2.450625 2.675 -3.21375 1.85 -4 1 C-2 0 -2 0 0 0 Z " fill="#1A2D9C" transform="translate(435,178)"/>
<path d="M0 0 C1.4540625 0.0309375 1.4540625 0.0309375 2.9375 0.0625 C1.2875 2.0425 -0.3625 4.0225 -2.0625 6.0625 C-2.0625 5.0725 -2.0625 4.0825 -2.0625 3.0625 C-2.7225 2.4025 -3.3825 1.7425 -4.0625 1.0625 C-3.0625 0.0625 -3.0625 0.0625 0 0 Z " fill="#1C5CC7" transform="translate(542.0625,522.9375)"/>
<path d="M0 0 C1.1171875 1.734375 1.1171875 1.734375 2 4 C1.3203125 6.140625 1.3203125 6.140625 0.125 8.25 C-0.26429688 8.95640625 -0.65359375 9.6628125 -1.0546875 10.390625 C-1.36664062 10.92171875 -1.67859375 11.4528125 -2 12 C-3.12377697 8.69564916 -2.89554742 6.9493138 -1.5625 3.75 C-1.27503906 3.04359375 -0.98757813 2.3371875 -0.69140625 1.609375 C-0.46324219 1.07828125 -0.23507812 0.5471875 0 0 Z " fill="#105EC6" transform="translate(661,364)"/>
<path d="M0 0 C0 0.66 0 1.32 0 2 C-4.38461538 5 -4.38461538 5 -7 5 C-7.33 5.66 -7.66 6.32 -8 7 C-8 5.68 -8 4.36 -8 3 C-2.25 0 -2.25 0 0 0 Z " fill="#0A4DC1" transform="translate(708,340)"/>
<path d="M0 0 C0.66 0 1.32 0 2 0 C1.1875 3.4375 1.1875 3.4375 0 7 C-0.99 7.33 -1.98 7.66 -3 8 C-3 6.68 -3 5.36 -3 4 C-2.34 4 -1.68 4 -1 4 C-0.67 2.68 -0.34 1.36 0 0 Z " fill="#0F5FC8" transform="translate(402,600)"/>
<path d="M0 0 C1.34110539 2.20887947 2.06609767 3.45469419 1.75 6.0625 C1 8 1 8 -1 11 C-1.14285714 3.57142857 -1.14285714 3.57142857 0 0 Z " fill="#0B7BCF" transform="translate(642,565)"/>
<path d="M0 0 C0.66 0.99 1.32 1.98 2 3 C1.01 4.98 0.02 6.96 -1 9 C-2.1875 7.3125 -2.1875 7.3125 -3 5 C-1.625 2.25 -1.625 2.25 0 0 Z " fill="#1258C4" transform="translate(665,356)"/>
<path d="M0 0 C0 0.99 0 1.98 0 3 C-2.5 5.1875 -2.5 5.1875 -5 7 C-5 4 -5 4 -3 1 C-2.01 0.67 -1.02 0.34 0 0 Z " fill="#1158C5" transform="translate(690,353)"/>
<path d="M0 0 C3.25543229 0.34879632 4.01873107 1.02133261 6.25 3.5625 C6.8275 4.366875 7.405 5.17125 8 6 C7.67 6.66 7.34 7.32 7 8 C4.35247996 5.42215154 2.05567935 3.08351902 0 0 Z " fill="#0823A1" transform="translate(469,226)"/>
<path d="M0 0 C-0.33 0.66 -0.66 1.32 -1 2 C-2.33076989 2.34342449 -3.66431979 2.67619874 -5 3 C-5.66 3.66 -6.32 4.32 -7 5 C-7 3.68 -7 2.36 -7 1 C-3.375 -1.125 -3.375 -1.125 0 0 Z " fill="#187CCF" transform="translate(499,634)"/>
<path d="M0 0 C2.31 0.66 4.62 1.32 7 2 C7 2.66 7 3.32 7 4 C4.69 3.67 2.38 3.34 0 3 C0 2.01 0 1.02 0 0 Z " fill="#0D27A6" transform="translate(206,451)"/>
<path d="M0 0 C2.88575819 0.39803561 3.82189513 0.79009069 5.75 3.0625 C6.1625 3.701875 6.575 4.34125 7 5 C6.67 5.66 6.34 6.32 6 7 C3.95880212 5.38405168 1.95927063 3.7143618 0 2 C0 1.34 0 0.68 0 0 Z " fill="#126DCA" transform="translate(710,444)"/>
<path d="M0 0 C0.99 0 1.98 0 3 0 C1.73058503 3.91402949 0.48832306 5.79072873 -3 8 C-1.125 2.25 -1.125 2.25 0 0 Z " fill="#061697" transform="translate(384,263)"/>
</svg>
